solid ASCII
  facet normal 1.000000e+00 0.000000e+00 -0.000000e+00
    outer loop
      vertex   3.700000e+01 0.000000e+00 3.100000e+01
      vertex   3.700000e+01 0.000000e+00 4.100000e+01
      vertex   3.700000e+01 -2.000000e+00 3.100000e+01
    endloop
  endfacet
  facet normal 1.000000e+00 0.000000e+00 0.000000e+00
    outer loop
      vertex   3.700000e+01 -2.000000e+00 3.100000e+01
      vertex   3.700000e+01 0.000000e+00 4.100000e+01
      vertex   3.700000e+01 -2.000000e+00 4.100000e+01
    endloop
  endfacet
  facet normal 0.000000e+00 0.000000e+00 1.000000e+00
    outer loop
      vertex   4.700000e+01 0.000000e+00 3.100000e+01
      vertex   3.700000e+01 0.000000e+00 3.100000e+01
      vertex   4.700000e+01 -2.000000e+00 3.100000e+01
    endloop
  endfacet
  facet normal 0.000000e+00 0.000000e+00 1.000000e+00
    outer loop
      vertex   4.700000e+01 -2.000000e+00 3.100000e+01
      vertex   3.700000e+01 0.000000e+00 3.100000e+01
      vertex   3.700000e+01 -2.000000e+00 3.100000e+01
    endloop
  endfacet
  facet normal -1.000000e+00 -0.000000e+00 -0.000000e+00
    outer loop
      vertex   4.700000e+01 0.000000e+00 4.100000e+01
      vertex   4.700000e+01 0.000000e+00 3.100000e+01
      vertex   4.700000e+01 -2.000000e+00 4.100000e+01
    endloop
  endfacet
  facet normal -1.000000e+00 0.000000e+00 0.000000e+00
    outer loop
      vertex   4.700000e+01 -2.000000e+00 4.100000e+01
      vertex   4.700000e+01 0.000000e+00 3.100000e+01
      vertex   4.700000e+01 -2.000000e+00 3.100000e+01
    endloop
  endfacet
  facet normal 0.000000e+00 0.000000e+00 -1.000000e+00
    outer loop
      vertex   3.700000e+01 0.000000e+00 4.100000e+01
      vertex   4.700000e+01 0.000000e+00 4.100000e+01
      vertex   3.700000e+01 -2.000000e+00 4.100000e+01
    endloop
  endfacet
  facet normal 0.000000e+00 0.000000e+00 -1.000000e+00
    outer loop
      vertex   3.700000e+01 -2.000000e+00 4.100000e+01
      vertex   4.700000e+01 0.000000e+00 4.100000e+01
      vertex   4.700000e+01 -2.000000e+00 4.100000e+01
    endloop
  endfacet
  facet normal 1.000000e+00 0.000000e+00 -0.000000e+00
    outer loop
      vertex   5.300000e+01 0.000000e+00 3.500000e+01
      vertex   5.300000e+01 0.000000e+00 4.100000e+01
      vertex   5.300000e+01 -2.000000e+00 3.500000e+01
    endloop
  endfacet
  facet normal 1.000000e+00 0.000000e+00 0.000000e+00
    outer loop
      vertex   5.300000e+01 -2.000000e+00 3.500000e+01
      vertex   5.300000e+01 0.000000e+00 4.100000e+01
      vertex   5.300000e+01 -2.000000e+00 4.100000e+01
    endloop
  endfacet
  facet normal 0.000000e+00 0.000000e+00 1.000000e+00
    outer loop
      vertex   5.900000e+01 0.000000e+00 3.500000e+01
      vertex   5.300000e+01 0.000000e+00 3.500000e+01
      vertex   5.900000e+01 -2.000000e+00 3.500000e+01
    endloop
  endfacet
  facet normal 0.000000e+00 0.000000e+00 1.000000e+00
    outer loop
      vertex   5.900000e+01 -2.000000e+00 3.500000e+01
      vertex   5.300000e+01 0.000000e+00 3.500000e+01
      vertex   5.300000e+01 -2.000000e+00 3.500000e+01
    endloop
  endfacet
  facet normal -1.000000e+00 -0.000000e+00 -0.000000e+00
    outer loop
      vertex   5.900000e+01 0.000000e+00 4.100000e+01
      vertex   5.900000e+01 0.000000e+00 3.500000e+01
      vertex   5.900000e+01 -2.000000e+00 4.100000e+01
    endloop
  endfacet
  facet normal -1.000000e+00 0.000000e+00 0.000000e+00
    outer loop
      vertex   5.900000e+01 -2.000000e+00 4.100000e+01
      vertex   5.900000e+01 0.000000e+00 3.500000e+01
      vertex   5.900000e+01 -2.000000e+00 3.500000e+01
    endloop
  endfacet
  facet normal 0.000000e+00 0.000000e+00 -1.000000e+00
    outer loop
      vertex   5.300000e+01 0.000000e+00 4.100000e+01
      vertex   5.900000e+01 0.000000e+00 4.100000e+01
      vertex   5.300000e+01 -2.000000e+00 4.100000e+01
    endloop
  endfacet
  facet normal 0.000000e+00 0.000000e+00 -1.000000e+00
    outer loop
      vertex   5.300000e+01 -2.000000e+00 4.100000e+01
      vertex   5.900000e+01 0.000000e+00 4.100000e+01
      vertex   5.900000e+01 -2.000000e+00 4.100000e+01
    endloop
  endfacet
  facet normal -1.000000e+00 0.000000e+00 0.000000e+00
    outer loop
      vertex   3.100000e+01 -2.000000e+00 2.500000e+01
      vertex   3.100000e+01 -2.000000e+00 4.100000e+01
      vertex   3.100000e+01 0.000000e+00 2.500000e+01
    endloop
  endfacet
  facet normal -1.000000e+00 0.000000e+00 0.000000e+00
    outer loop
      vertex   3.100000e+01 0.000000e+00 2.500000e+01
      vertex   3.100000e+01 -2.000000e+00 4.100000e+01
      vertex   3.100000e+01 0.000000e+00 4.100000e+01
    endloop
  endfacet
  facet normal 0.000000e+00 0.000000e+00 -1.000000e+00
    outer loop
      vertex   3.100000e+01 -2.000000e+00 4.100000e+01
      vertex   3.000000e+00 -2.000000e+00 4.100000e+01
      vertex   3.100000e+01 0.000000e+00 4.100000e+01
    endloop
  endfacet
  facet normal -0.000000e+00 0.000000e+00 -1.000000e+00
    outer loop
      vertex   3.100000e+01 0.000000e+00 4.100000e+01
      vertex   3.000000e+00 -2.000000e+00 4.100000e+01
      vertex   3.000000e+00 0.000000e+00 4.100000e+01
    endloop
  endfacet
  facet normal 1.000000e+00 -0.000000e+00 0.000000e+00
    outer loop
      vertex   3.000000e+00 -2.000000e+00 4.100000e+01
      vertex   3.000000e+00 -2.000000e+00 2.500000e+01
      vertex   3.000000e+00 0.000000e+00 4.100000e+01
    endloop
  endfacet
  facet normal 1.000000e+00 0.000000e+00 0.000000e+00
    outer loop
      vertex   3.000000e+00 0.000000e+00 4.100000e+01
      vertex   3.000000e+00 -2.000000e+00 2.500000e+01
      vertex   3.000000e+00 0.000000e+00 2.500000e+01
    endloop
  endfacet
  facet normal 0.000000e+00 0.000000e+00 1.000000e+00
    outer loop
      vertex   3.000000e+00 -2.000000e+00 2.500000e+01
      vertex   3.100000e+01 -2.000000e+00 2.500000e+01
      vertex   3.000000e+00 0.000000e+00 2.500000e+01
    endloop
  endfacet
  facet normal -0.000000e+00 0.000000e+00 1.000000e+00
    outer loop
      vertex   3.000000e+00 0.000000e+00 2.500000e+01
      vertex   3.100000e+01 -2.000000e+00 2.500000e+01
      vertex   3.100000e+01 0.000000e+00 2.500000e+01
    endloop
  endfacet
  facet normal 0.000000e+00 -0.000000e+00 1.000000e+00
    outer loop
      vertex   0.000000e+00 1.000000e+01 3.000000e+01
      vertex   0.000000e+00 5.400000e+01 3.000000e+01
      vertex   -2.000000e+00 1.000000e+01 3.000000e+01
    endloop
  endfacet
  facet normal 0.000000e+00 0.000000e+00 1.000000e+00
    outer loop
      vertex   -2.000000e+00 1.000000e+01 3.000000e+01
      vertex   0.000000e+00 5.400000e+01 3.000000e+01
      vertex   -2.000000e+00 5.600000e+01 3.000000e+01
    endloop
  endfacet
  facet normal 0.000000e+00 0.000000e+00 1.000000e+00
    outer loop
      vertex   -2.000000e+00 5.600000e+01 3.000000e+01
      vertex   0.000000e+00 5.400000e+01 3.000000e+01
      vertex   7.000000e+01 5.400000e+01 3.000000e+01
    endloop
  endfacet
  facet normal -0.000000e+00 0.000000e+00 1.000000e+00
    outer loop
      vertex   -2.000000e+00 5.600000e+01 3.000000e+01
      vertex   7.000000e+01 5.400000e+01 3.000000e+01
      vertex   7.200000e+01 5.600000e+01 3.000000e+01
    endloop
  endfacet
  facet normal 0.000000e+00 0.000000e+00 1.000000e+00
    outer loop
      vertex   7.200000e+01 5.600000e+01 3.000000e+01
      vertex   7.000000e+01 5.400000e+01 3.000000e+01
      vertex   7.200000e+01 5.000000e+01 3.000000e+01
    endloop
  endfacet
  facet normal 0.000000e+00 0.000000e+00 1.000000e+00
    outer loop
      vertex   7.200000e+01 5.000000e+01 3.000000e+01
      vertex   7.000000e+01 5.400000e+01 3.000000e+01
      vertex   7.000000e+01 5.000000e+01 3.000000e+01
    endloop
  endfacet
  facet normal 0.000000e+00 0.000000e+00 1.000000e+00
    outer loop
      vertex   7.000000e+01 2.200000e+01 3.000000e+01
      vertex   7.200000e+01 2.200000e+01 3.000000e+01
      vertex   7.000000e+01 3.900000e+01 3.000000e+01
    endloop
  endfacet
  facet normal -0.000000e+00 0.000000e+00 1.000000e+00
    outer loop
      vertex   7.000000e+01 3.900000e+01 3.000000e+01
      vertex   7.200000e+01 2.200000e+01 3.000000e+01
      vertex   7.200000e+01 3.900000e+01 3.000000e+01
    endloop
  endfacet
  facet normal 0.000000e+00 0.000000e+00 1.000000e+00
    outer loop
      vertex   7.200000e+01 1.000000e+01 0.000000e+00
      vertex   7.000000e+01 2.200000e+01 0.000000e+00
      vertex   7.000000e+01 1.000000e+01 0.000000e+00
    endloop
  endfacet
  facet normal 0.000000e+00 -0.000000e+00 1.000000e+00
    outer loop
      vertex   7.000000e+01 1.000000e+01 0.000000e+00
      vertex   7.000000e+01 2.200000e+01 0.000000e+00
      vertex   0.000000e+00 0.000000e+00 0.000000e+00
    endloop
  endfacet
  facet normal 0.000000e+00 0.000000e+00 1.000000e+00
    outer loop
      vertex   7.000000e+01 1.000000e+01 0.000000e+00
      vertex   0.000000e+00 0.000000e+00 0.000000e+00
      vertex   7.000000e+01 -2.465190e-31 0.000000e+00
    endloop
  endfacet
  facet normal 0.000000e+00 -0.000000e+00 1.000000e+00
    outer loop
      vertex   7.200000e+01 1.000000e+01 0.000000e+00
      vertex   7.200000e+01 2.200000e+01 0.000000e+00
      vertex   7.000000e+01 2.200000e+01 0.000000e+00
    endloop
  endfacet
  facet normal 0.000000e+00 0.000000e+00 1.000000e+00
    outer loop
      vertex   0.000000e+00 0.000000e+00 0.000000e+00
      vertex   7.000000e+01 2.200000e+01 0.000000e+00
      vertex   1.232595e-31 5.400000e+01 0.000000e+00
    endloop
  endfacet
  facet normal 0.000000e+00 0.000000e+00 1.000000e+00
    outer loop
      vertex   1.232595e-31 5.400000e+01 0.000000e+00
      vertex   7.000000e+01 2.200000e+01 0.000000e+00
      vertex   7.000000e+01 3.900000e+01 0.000000e+00
    endloop
  endfacet
  facet normal 0.000000e+00 0.000000e+00 1.000000e+00
    outer loop
      vertex   1.232595e-31 5.400000e+01 0.000000e+00
      vertex   7.000000e+01 3.900000e+01 0.000000e+00
      vertex   7.000000e+01 5.000000e+01 0.000000e+00
    endloop
  endfacet
  facet normal 0.000000e+00 0.000000e+00 1.000000e+00
    outer loop
      vertex   7.000000e+01 5.000000e+01 0.000000e+00
      vertex   7.000000e+01 3.900000e+01 0.000000e+00
      vertex   7.200000e+01 3.900000e+01 0.000000e+00
    endloop
  endfacet
  facet normal -0.000000e+00 0.000000e+00 1.000000e+00
    outer loop
      vertex   7.000000e+01 5.000000e+01 0.000000e+00
      vertex   7.200000e+01 3.900000e+01 0.000000e+00
      vertex   7.200000e+01 5.000000e+01 0.000000e+00
    endloop
  endfacet
  facet normal 0.000000e+00 -0.000000e+00 1.000000e+00
    outer loop
      vertex   7.000000e+01 5.000000e+01 0.000000e+00
      vertex   7.000000e+01 5.400000e+01 0.000000e+00
      vertex   1.232595e-31 5.400000e+01 0.000000e+00
    endloop
  endfacet
  facet normal 0.000000e+00 -0.000000e+00 -1.000000e+00
    outer loop
      vertex   -2.000000e+00 5.600000e+01 -2.000000e+00
      vertex   7.200000e+01 5.600000e+01 -2.000000e+00
      vertex   -2.000000e+00 -2.000000e+00 -2.000000e+00
    endloop
  endfacet
  facet normal 0.000000e+00 0.000000e+00 -1.000000e+00
    outer loop
      vertex   -2.000000e+00 -2.000000e+00 -2.000000e+00
      vertex   7.200000e+01 5.600000e+01 -2.000000e+00
      vertex   7.200000e+01 -2.000000e+00 -2.000000e+00
    endloop
  endfacet
  facet normal -1.000000e+00 0.000000e+00 0.000000e+00
    outer loop
      vertex   7.000000e+01 3.900000e+01 0.000000e+00
      vertex   7.000000e+01 2.200000e+01 0.000000e+00
      vertex   7.000000e+01 3.900000e+01 3.000000e+01
    endloop
  endfacet
  facet normal -1.000000e+00 -0.000000e+00 0.000000e+00
    outer loop
      vertex   7.000000e+01 3.900000e+01 3.000000e+01
      vertex   7.000000e+01 2.200000e+01 0.000000e+00
      vertex   7.000000e+01 2.200000e+01 3.000000e+01
    endloop
  endfacet
  facet normal 0.000000e+00 1.000000e+00 -0.000000e+00
    outer loop
      vertex   7.200000e+01 3.900000e+01 0.000000e+00
      vertex   7.000000e+01 3.900000e+01 0.000000e+00
      vertex   7.200000e+01 3.900000e+01 3.000000e+01
    endloop
  endfacet
  facet normal 0.000000e+00 1.000000e+00 0.000000e+00
    outer loop
      vertex   7.200000e+01 3.900000e+01 3.000000e+01
      vertex   7.000000e+01 3.900000e+01 0.000000e+00
      vertex   7.000000e+01 3.900000e+01 3.000000e+01
    endloop
  endfacet
  facet normal 0.000000e+00 -1.000000e+00 0.000000e+00
    outer loop
      vertex   7.000000e+01 2.200000e+01 0.000000e+00
      vertex   7.200000e+01 2.200000e+01 0.000000e+00
      vertex   7.000000e+01 2.200000e+01 3.000000e+01
    endloop
  endfacet
  facet normal 0.000000e+00 -1.000000e+00 0.000000e+00
    outer loop
      vertex   7.000000e+01 2.200000e+01 3.000000e+01
      vertex   7.200000e+01 2.200000e+01 0.000000e+00
      vertex   7.200000e+01 2.200000e+01 3.000000e+01
    endloop
  endfacet
  facet normal 0.000000e+00 1.000000e+00 -0.000000e+00
    outer loop
      vertex   0.000000e+00 1.000000e+01 3.000000e+01
      vertex   -2.000000e+00 1.000000e+01 3.000000e+01
      vertex   0.000000e+00 1.000000e+01 5.000000e+01
    endloop
  endfacet
  facet normal 0.000000e+00 1.000000e+00 0.000000e+00
    outer loop
      vertex   0.000000e+00 1.000000e+01 5.000000e+01
      vertex   -2.000000e+00 1.000000e+01 3.000000e+01
      vertex   -2.000000e+00 1.000000e+01 5.000000e+01
    endloop
  endfacet
  facet normal 0.000000e+00 0.000000e+00 1.000000e+00
    outer loop
      vertex   0.000000e+00 1.000000e+01 5.000000e+01
      vertex   -2.000000e+00 1.000000e+01 5.000000e+01
      vertex   0.000000e+00 0.000000e+00 5.000000e+01
    endloop
  endfacet
  facet normal 0.000000e+00 0.000000e+00 1.000000e+00
    outer loop
      vertex   0.000000e+00 0.000000e+00 5.000000e+01
      vertex   -2.000000e+00 1.000000e+01 5.000000e+01
      vertex   -2.000000e+00 -2.000000e+00 5.000000e+01
    endloop
  endfacet
  facet normal 0.000000e+00 0.000000e+00 1.000000e+00
    outer loop
      vertex   0.000000e+00 0.000000e+00 5.000000e+01
      vertex   -2.000000e+00 -2.000000e+00 5.000000e+01
      vertex   7.200000e+01 -2.000000e+00 5.000000e+01
    endloop
  endfacet
  facet normal -0.000000e+00 0.000000e+00 1.000000e+00
    outer loop
      vertex   0.000000e+00 0.000000e+00 5.000000e+01
      vertex   7.200000e+01 -2.000000e+00 5.000000e+01
      vertex   7.000000e+01 0.000000e+00 5.000000e+01
    endloop
  endfacet
  facet normal -0.000000e+00 0.000000e+00 1.000000e+00
    outer loop
      vertex   7.000000e+01 0.000000e+00 5.000000e+01
      vertex   7.200000e+01 -2.000000e+00 5.000000e+01
      vertex   7.200000e+01 1.000000e+01 5.000000e+01
    endloop
  endfacet
  facet normal 0.000000e+00 0.000000e+00 1.000000e+00
    outer loop
      vertex   7.000000e+01 0.000000e+00 5.000000e+01
      vertex   7.200000e+01 1.000000e+01 5.000000e+01
      vertex   7.000000e+01 1.000000e+01 5.000000e+01
    endloop
  endfacet
  facet normal 0.000000e+00 -1.000000e+00 0.000000e+00
    outer loop
      vertex   1.232595e-31 5.400000e+01 0.000000e+00
      vertex   7.000000e+01 5.400000e+01 0.000000e+00
      vertex   0.000000e+00 5.400000e+01 3.000000e+01
    endloop
  endfacet
  facet normal 0.000000e+00 -1.000000e+00 0.000000e+00
    outer loop
      vertex   0.000000e+00 5.400000e+01 3.000000e+01
      vertex   7.000000e+01 5.400000e+01 0.000000e+00
      vertex   7.000000e+01 5.400000e+01 3.000000e+01
    endloop
  endfacet
  facet normal 1.000000e+00 0.000000e+00 0.000000e+00
    outer loop
      vertex   0.000000e+00 0.000000e+00 5.000000e+01
      vertex   0.000000e+00 0.000000e+00 0.000000e+00
      vertex   0.000000e+00 1.000000e+01 3.000000e+01
    endloop
  endfacet
  facet normal 1.000000e+00 -2.282584e-33 7.608612e-34
    outer loop
      vertex   0.000000e+00 1.000000e+01 3.000000e+01
      vertex   0.000000e+00 0.000000e+00 0.000000e+00
      vertex   1.232595e-31 5.400000e+01 0.000000e+00
    endloop
  endfacet
  facet normal 1.000000e+00 -0.000000e+00 4.108651e-33
    outer loop
      vertex   0.000000e+00 1.000000e+01 3.000000e+01
      vertex   1.232595e-31 5.400000e+01 0.000000e+00
      vertex   0.000000e+00 5.400000e+01 3.000000e+01
    endloop
  endfacet
  facet normal 1.000000e+00 0.000000e+00 -0.000000e+00
    outer loop
      vertex   0.000000e+00 1.000000e+01 3.000000e+01
      vertex   0.000000e+00 1.000000e+01 5.000000e+01
      vertex   0.000000e+00 0.000000e+00 5.000000e+01
    endloop
  endfacet
  facet normal 0.000000e+00 1.000000e+00 0.000000e+00
    outer loop
      vertex   4.700000e+01 0.000000e+00 4.100000e+01
      vertex   5.300000e+01 0.000000e+00 3.500000e+01
      vertex   4.700000e+01 0.000000e+00 3.100000e+01
    endloop
  endfacet
  facet normal 0.000000e+00 1.000000e+00 0.000000e+00
    outer loop
      vertex   4.700000e+01 0.000000e+00 3.100000e+01
      vertex   5.300000e+01 0.000000e+00 3.500000e+01
      vertex   5.900000e+01 0.000000e+00 3.500000e+01
    endloop
  endfacet
  facet normal 2.125164e-33 1.000000e+00 -6.375492e-33
    outer loop
      vertex   4.700000e+01 0.000000e+00 3.100000e+01
      vertex   5.900000e+01 0.000000e+00 3.500000e+01
      vertex   7.000000e+01 -2.465190e-31 0.000000e+00
    endloop
  endfacet
  facet normal 6.723246e-33 1.000000e+00 -4.930381e-33
    outer loop
      vertex   7.000000e+01 -2.465190e-31 0.000000e+00
      vertex   5.900000e+01 0.000000e+00 3.500000e+01
      vertex   7.000000e+01 0.000000e+00 5.000000e+01
    endloop
  endfacet
  facet normal 0.000000e+00 1.000000e+00 0.000000e+00
    outer loop
      vertex   7.000000e+01 0.000000e+00 5.000000e+01
      vertex   5.900000e+01 0.000000e+00 3.500000e+01
      vertex   5.900000e+01 0.000000e+00 4.100000e+01
    endloop
  endfacet
  facet normal 0.000000e+00 1.000000e+00 0.000000e+00
    outer loop
      vertex   7.000000e+01 0.000000e+00 5.000000e+01
      vertex   5.900000e+01 0.000000e+00 4.100000e+01
      vertex   5.300000e+01 0.000000e+00 4.100000e+01
    endloop
  endfacet
  facet normal 0.000000e+00 1.000000e+00 0.000000e+00
    outer loop
      vertex   3.700000e+01 0.000000e+00 4.100000e+01
      vertex   7.000000e+01 0.000000e+00 5.000000e+01
      vertex   4.700000e+01 0.000000e+00 4.100000e+01
    endloop
  endfacet
  facet normal 0.000000e+00 1.000000e+00 0.000000e+00
    outer loop
      vertex   4.700000e+01 0.000000e+00 4.100000e+01
      vertex   7.000000e+01 0.000000e+00 5.000000e+01
      vertex   5.300000e+01 0.000000e+00 4.100000e+01
    endloop
  endfacet
  facet normal -0.000000e+00 1.000000e+00 0.000000e+00
    outer loop
      vertex   4.700000e+01 0.000000e+00 4.100000e+01
      vertex   5.300000e+01 0.000000e+00 4.100000e+01
      vertex   5.300000e+01 0.000000e+00 3.500000e+01
    endloop
  endfacet
  facet normal 0.000000e+00 1.000000e+00 -0.000000e+00
    outer loop
      vertex   3.700000e+01 0.000000e+00 3.100000e+01
      vertex   3.100000e+01 0.000000e+00 4.100000e+01
      vertex   3.700000e+01 0.000000e+00 4.100000e+01
    endloop
  endfacet
  facet normal 0.000000e+00 1.000000e+00 0.000000e+00
    outer loop
      vertex   3.700000e+01 0.000000e+00 4.100000e+01
      vertex   3.100000e+01 0.000000e+00 4.100000e+01
      vertex   0.000000e+00 0.000000e+00 5.000000e+01
    endloop
  endfacet
  facet normal 0.000000e+00 1.000000e+00 -0.000000e+00
    outer loop
      vertex   3.700000e+01 0.000000e+00 4.100000e+01
      vertex   0.000000e+00 0.000000e+00 5.000000e+01
      vertex   7.000000e+01 0.000000e+00 5.000000e+01
    endloop
  endfacet
  facet normal 0.000000e+00 1.000000e+00 0.000000e+00
    outer loop
      vertex   3.100000e+01 0.000000e+00 4.100000e+01
      vertex   3.700000e+01 0.000000e+00 3.100000e+01
      vertex   3.100000e+01 0.000000e+00 2.500000e+01
    endloop
  endfacet
  facet normal 0.000000e+00 1.000000e+00 0.000000e+00
    outer loop
      vertex   3.100000e+01 0.000000e+00 2.500000e+01
      vertex   3.700000e+01 0.000000e+00 3.100000e+01
      vertex   4.700000e+01 0.000000e+00 3.100000e+01
    endloop
  endfacet
  facet normal 2.332988e-33 1.000000e+00 -6.221300e-33
    outer loop
      vertex   3.100000e+01 0.000000e+00 2.500000e+01
      vertex   4.700000e+01 0.000000e+00 3.100000e+01
      vertex   7.000000e+01 -2.465190e-31 0.000000e+00
    endloop
  endfacet
  facet normal 0.000000e+00 1.000000e+00 0.000000e+00
    outer loop
      vertex   3.100000e+01 0.000000e+00 4.100000e+01
      vertex   3.000000e+00 0.000000e+00 4.100000e+01
      vertex   0.000000e+00 0.000000e+00 5.000000e+01
    endloop
  endfacet
  facet normal 0.000000e+00 1.000000e+00 0.000000e+00
    outer loop
      vertex   0.000000e+00 0.000000e+00 5.000000e+01
      vertex   3.000000e+00 0.000000e+00 4.100000e+01
      vertex   3.000000e+00 0.000000e+00 2.500000e+01
    endloop
  endfacet
  facet normal 0.000000e+00 1.000000e+00 0.000000e+00
    outer loop
      vertex   0.000000e+00 0.000000e+00 5.000000e+01
      vertex   3.000000e+00 0.000000e+00 2.500000e+01
      vertex   0.000000e+00 0.000000e+00 0.000000e+00
    endloop
  endfacet
  facet normal 0.000000e+00 1.000000e+00 0.000000e+00
    outer loop
      vertex   0.000000e+00 0.000000e+00 0.000000e+00
      vertex   3.000000e+00 0.000000e+00 2.500000e+01
      vertex   3.100000e+01 0.000000e+00 2.500000e+01
    endloop
  endfacet
  facet normal 3.521700e-33 1.000000e+00 -4.366909e-33
    outer loop
      vertex   0.000000e+00 0.000000e+00 0.000000e+00
      vertex   3.100000e+01 0.000000e+00 2.500000e+01
      vertex   7.000000e+01 -2.465190e-31 0.000000e+00
    endloop
  endfacet
  facet normal -1.000000e+00 0.000000e+00 0.000000e+00
    outer loop
      vertex   7.000000e+01 1.000000e+01 0.000000e+00
      vertex   7.000000e+01 -2.465190e-31 0.000000e+00
      vertex   7.000000e+01 1.000000e+01 5.000000e+01
    endloop
  endfacet
  facet normal -1.000000e+00 -0.000000e+00 0.000000e+00
    outer loop
      vertex   7.000000e+01 1.000000e+01 5.000000e+01
      vertex   7.000000e+01 -2.465190e-31 0.000000e+00
      vertex   7.000000e+01 0.000000e+00 5.000000e+01
    endloop
  endfacet
  facet normal 0.000000e+00 1.000000e+00 -0.000000e+00
    outer loop
      vertex   7.200000e+01 1.000000e+01 0.000000e+00
      vertex   7.000000e+01 1.000000e+01 0.000000e+00
      vertex   7.200000e+01 1.000000e+01 5.000000e+01
    endloop
  endfacet
  facet normal 0.000000e+00 1.000000e+00 0.000000e+00
    outer loop
      vertex   7.200000e+01 1.000000e+01 5.000000e+01
      vertex   7.000000e+01 1.000000e+01 0.000000e+00
      vertex   7.000000e+01 1.000000e+01 5.000000e+01
    endloop
  endfacet
  facet normal 1.000000e+00 0.000000e+00 0.000000e+00
    outer loop
      vertex   7.200000e+01 1.000000e+01 5.000000e+01
      vertex   7.200000e+01 -2.000000e+00 5.000000e+01
      vertex   7.200000e+01 1.000000e+01 0.000000e+00
    endloop
  endfacet
  facet normal 1.000000e+00 0.000000e+00 0.000000e+00
    outer loop
      vertex   7.200000e+01 1.000000e+01 0.000000e+00
      vertex   7.200000e+01 -2.000000e+00 5.000000e+01
      vertex   7.200000e+01 -2.000000e+00 -2.000000e+00
    endloop
  endfacet
  facet normal 1.000000e+00 -0.000000e+00 0.000000e+00
    outer loop
      vertex   7.200000e+01 1.000000e+01 0.000000e+00
      vertex   7.200000e+01 -2.000000e+00 -2.000000e+00
      vertex   7.200000e+01 2.200000e+01 0.000000e+00
    endloop
  endfacet
  facet normal 1.000000e+00 0.000000e+00 0.000000e+00
    outer loop
      vertex   7.200000e+01 2.200000e+01 0.000000e+00
      vertex   7.200000e+01 -2.000000e+00 -2.000000e+00
      vertex   7.200000e+01 5.600000e+01 -2.000000e+00
    endloop
  endfacet
  facet normal 1.000000e+00 -0.000000e+00 0.000000e+00
    outer loop
      vertex   7.200000e+01 2.200000e+01 0.000000e+00
      vertex   7.200000e+01 5.600000e+01 -2.000000e+00
      vertex   7.200000e+01 3.900000e+01 0.000000e+00
    endloop
  endfacet
  facet normal 1.000000e+00 -0.000000e+00 0.000000e+00
    outer loop
      vertex   7.200000e+01 3.900000e+01 0.000000e+00
      vertex   7.200000e+01 5.600000e+01 -2.000000e+00
      vertex   7.200000e+01 5.000000e+01 0.000000e+00
    endloop
  endfacet
  facet normal 1.000000e+00 -0.000000e+00 0.000000e+00
    outer loop
      vertex   7.200000e+01 5.000000e+01 0.000000e+00
      vertex   7.200000e+01 5.600000e+01 -2.000000e+00
      vertex   7.200000e+01 5.600000e+01 3.000000e+01
    endloop
  endfacet
  facet normal 1.000000e+00 0.000000e+00 0.000000e+00
    outer loop
      vertex   7.200000e+01 5.000000e+01 0.000000e+00
      vertex   7.200000e+01 5.600000e+01 3.000000e+01
      vertex   7.200000e+01 5.000000e+01 3.000000e+01
    endloop
  endfacet
  facet normal 1.000000e+00 0.000000e+00 0.000000e+00
    outer loop
      vertex   7.200000e+01 3.900000e+01 3.000000e+01
      vertex   7.200000e+01 2.200000e+01 3.000000e+01
      vertex   7.200000e+01 3.900000e+01 0.000000e+00
    endloop
  endfacet
  facet normal 1.000000e+00 0.000000e+00 0.000000e+00
    outer loop
      vertex   7.200000e+01 3.900000e+01 0.000000e+00
      vertex   7.200000e+01 2.200000e+01 3.000000e+01
      vertex   7.200000e+01 2.200000e+01 0.000000e+00
    endloop
  endfacet
  facet normal 0.000000e+00 -1.000000e+00 0.000000e+00
    outer loop
      vertex   4.700000e+01 -2.000000e+00 3.100000e+01
      vertex   5.300000e+01 -2.000000e+00 3.500000e+01
      vertex   4.700000e+01 -2.000000e+00 4.100000e+01
    endloop
  endfacet
  facet normal 0.000000e+00 -1.000000e+00 0.000000e+00
    outer loop
      vertex   4.700000e+01 -2.000000e+00 4.100000e+01
      vertex   5.300000e+01 -2.000000e+00 3.500000e+01
      vertex   5.300000e+01 -2.000000e+00 4.100000e+01
    endloop
  endfacet
  facet normal 0.000000e+00 -1.000000e+00 -1.973730e-16
    outer loop
      vertex   4.700000e+01 -2.000000e+00 4.100000e+01
      vertex   5.300000e+01 -2.000000e+00 4.100000e+01
      vertex   7.200000e+01 -2.000000e+00 5.000000e+01
    endloop
  endfacet
  facet normal 0.000000e+00 -1.000000e+00 -1.973730e-16
    outer loop
      vertex   7.200000e+01 -2.000000e+00 5.000000e+01
      vertex   5.300000e+01 -2.000000e+00 4.100000e+01
      vertex   5.900000e+01 -2.000000e+00 4.100000e+01
    endloop
  endfacet
  facet normal -1.366428e-16 -1.000000e+00 0.000000e+00
    outer loop
      vertex   7.200000e+01 -2.000000e+00 5.000000e+01
      vertex   5.900000e+01 -2.000000e+00 4.100000e+01
      vertex   5.900000e+01 -2.000000e+00 3.500000e+01
    endloop
  endfacet
  facet normal 0.000000e+00 -1.000000e+00 -0.000000e+00
    outer loop
      vertex   3.700000e+01 -2.000000e+00 3.100000e+01
      vertex   3.100000e+01 -2.000000e+00 2.500000e+01
      vertex   4.700000e+01 -2.000000e+00 3.100000e+01
    endloop
  endfacet
  facet normal -1.571997e-17 -1.000000e+00 4.191992e-17
    outer loop
      vertex   4.700000e+01 -2.000000e+00 3.100000e+01
      vertex   3.100000e+01 -2.000000e+00 2.500000e+01
      vertex   7.200000e+01 -2.000000e+00 -2.000000e+00
    endloop
  endfacet
  facet normal -1.432546e-17 -1.000000e+00 4.297637e-17
    outer loop
      vertex   4.700000e+01 -2.000000e+00 3.100000e+01
      vertex   7.200000e+01 -2.000000e+00 -2.000000e+00
      vertex   5.900000e+01 -2.000000e+00 3.500000e+01
    endloop
  endfacet
  facet normal -1.366428e-16 -1.000000e+00 0.000000e+00
    outer loop
      vertex   5.900000e+01 -2.000000e+00 3.500000e+01
      vertex   7.200000e+01 -2.000000e+00 -2.000000e+00
      vertex   7.200000e+01 -2.000000e+00 5.000000e+01
    endloop
  endfacet
  facet normal 0.000000e+00 -1.000000e+00 0.000000e+00
    outer loop
      vertex   3.100000e+01 -2.000000e+00 2.500000e+01
      vertex   3.700000e+01 -2.000000e+00 3.100000e+01
      vertex   3.100000e+01 -2.000000e+00 4.100000e+01
    endloop
  endfacet
  facet normal 0.000000e+00 -1.000000e+00 0.000000e+00
    outer loop
      vertex   3.100000e+01 -2.000000e+00 4.100000e+01
      vertex   3.700000e+01 -2.000000e+00 3.100000e+01
      vertex   3.700000e+01 -2.000000e+00 4.100000e+01
    endloop
  endfacet
  facet normal 2.009742e-23 -1.000000e+00 -1.973729e-16
    outer loop
      vertex   3.100000e+01 -2.000000e+00 4.100000e+01
      vertex   3.700000e+01 -2.000000e+00 4.100000e+01
      vertex   -2.000000e+00 -2.000000e+00 5.000000e+01
    endloop
  endfacet
  facet normal 0.000000e+00 -1.000000e+00 -1.973730e-16
    outer loop
      vertex   -2.000000e+00 -2.000000e+00 5.000000e+01
      vertex   3.700000e+01 -2.000000e+00 4.100000e+01
      vertex   7.200000e+01 -2.000000e+00 5.000000e+01
    endloop
  endfacet
  facet normal 0.000000e+00 -1.000000e+00 -1.973730e-16
    outer loop
      vertex   7.200000e+01 -2.000000e+00 5.000000e+01
      vertex   3.700000e+01 -2.000000e+00 4.100000e+01
      vertex   4.700000e+01 -2.000000e+00 4.100000e+01
    endloop
  endfacet
  facet normal -0.000000e+00 -1.000000e+00 0.000000e+00
    outer loop
      vertex   5.900000e+01 -2.000000e+00 3.500000e+01
      vertex   5.300000e+01 -2.000000e+00 3.500000e+01
      vertex   4.700000e+01 -2.000000e+00 3.100000e+01
    endloop
  endfacet
  facet normal 0.000000e+00 -1.000000e+00 6.579099e-17
    outer loop
      vertex   7.200000e+01 -2.000000e+00 -2.000000e+00
      vertex   3.100000e+01 -2.000000e+00 2.500000e+01
      vertex   -2.000000e+00 -2.000000e+00 -2.000000e+00
    endloop
  endfacet
  facet normal 0.000000e+00 -1.000000e+00 6.579099e-17
    outer loop
      vertex   -2.000000e+00 -2.000000e+00 -2.000000e+00
      vertex   3.100000e+01 -2.000000e+00 2.500000e+01
      vertex   3.000000e+00 -2.000000e+00 2.500000e+01
    endloop
  endfacet
  facet normal 3.552714e-16 -1.000000e+00 1.213632e-32
    outer loop
      vertex   -2.000000e+00 -2.000000e+00 -2.000000e+00
      vertex   3.000000e+00 -2.000000e+00 2.500000e+01
      vertex   -2.000000e+00 -2.000000e+00 5.000000e+01
    endloop
  endfacet
  facet normal 3.552714e-16 -1.000000e+00 0.000000e+00
    outer loop
      vertex   -2.000000e+00 -2.000000e+00 5.000000e+01
      vertex   3.000000e+00 -2.000000e+00 2.500000e+01
      vertex   3.000000e+00 -2.000000e+00 4.100000e+01
    endloop
  endfacet
  facet normal 0.000000e+00 -1.000000e+00 -1.973730e-16
    outer loop
      vertex   -2.000000e+00 -2.000000e+00 5.000000e+01
      vertex   3.000000e+00 -2.000000e+00 4.100000e+01
      vertex   3.100000e+01 -2.000000e+00 4.100000e+01
    endloop
  endfacet
  facet normal -1.000000e+00 1.225074e-16 -2.512358e-17
    outer loop
      vertex   -2.000000e+00 5.600000e+01 -2.000000e+00
      vertex   -2.000000e+00 -2.000000e+00 -2.000000e+00
      vertex   -2.000000e+00 1.000000e+01 3.000000e+01
    endloop
  endfacet
  facet normal -1.000000e+00 1.466064e-16 -3.416071e-17
    outer loop
      vertex   -2.000000e+00 1.000000e+01 3.000000e+01
      vertex   -2.000000e+00 -2.000000e+00 -2.000000e+00
      vertex   -2.000000e+00 -2.000000e+00 5.000000e+01
    endloop
  endfacet
  facet normal -1.000000e+00 2.035409e-16 0.000000e+00
    outer loop
      vertex   -2.000000e+00 1.000000e+01 3.000000e+01
      vertex   -2.000000e+00 -2.000000e+00 5.000000e+01
      vertex   -2.000000e+00 1.000000e+01 5.000000e+01
    endloop
  endfacet
  facet normal -1.000000e+00 1.399846e-16 0.000000e+00
    outer loop
      vertex   -2.000000e+00 1.000000e+01 3.000000e+01
      vertex   -2.000000e+00 5.600000e+01 3.000000e+01
      vertex   -2.000000e+00 5.600000e+01 -2.000000e+00
    endloop
  endfacet
  facet normal -0.000000e+00 1.000000e+00 0.000000e+00
    outer loop
      vertex   -2.000000e+00 5.600000e+01 3.000000e+01
      vertex   7.200000e+01 5.600000e+01 3.000000e+01
      vertex   -2.000000e+00 5.600000e+01 -2.000000e+00
    endloop
  endfacet
  facet normal 0.000000e+00 1.000000e+00 0.000000e+00
    outer loop
      vertex   -2.000000e+00 5.600000e+01 -2.000000e+00
      vertex   7.200000e+01 5.600000e+01 3.000000e+01
      vertex   7.200000e+01 5.600000e+01 -2.000000e+00
    endloop
  endfacet
  facet normal 0.000000e+00 -1.000000e+00 0.000000e+00
    outer loop
      vertex   7.000000e+01 5.000000e+01 0.000000e+00
      vertex   7.200000e+01 5.000000e+01 0.000000e+00
      vertex   7.000000e+01 5.000000e+01 3.000000e+01
    endloop
  endfacet
  facet normal 0.000000e+00 -1.000000e+00 0.000000e+00
    outer loop
      vertex   7.000000e+01 5.000000e+01 3.000000e+01
      vertex   7.200000e+01 5.000000e+01 0.000000e+00
      vertex   7.200000e+01 5.000000e+01 3.000000e+01
    endloop
  endfacet
  facet normal -1.000000e+00 0.000000e+00 0.000000e+00
    outer loop
      vertex   7.000000e+01 5.400000e+01 0.000000e+00
      vertex   7.000000e+01 5.000000e+01 0.000000e+00
      vertex   7.000000e+01 5.400000e+01 3.000000e+01
    endloop
  endfacet
  facet normal -1.000000e+00 -0.000000e+00 0.000000e+00
    outer loop
      vertex   7.000000e+01 5.400000e+01 3.000000e+01
      vertex   7.000000e+01 5.000000e+01 0.000000e+00
      vertex   7.000000e+01 5.000000e+01 3.000000e+01
    endloop
  endfacet
endsolid
