solid ASCII
  facet normal 1.000000e+00 0.000000e+00 9.992007e-16
    outer loop
      vertex   3.000000e+00 5.600000e+01 6.300000e+01
      vertex   3.000000e+00 5.600000e+01 6.700000e+01
      vertex   3.000000e+00 5.200000e+01 6.300000e+01
    endloop
  endfacet
  facet normal 1.000000e+00 0.000000e+00 9.992007e-16
    outer loop
      vertex   3.000000e+00 5.200000e+01 6.300000e+01
      vertex   3.000000e+00 5.600000e+01 6.700000e+01
      vertex   3.000000e+00 5.200000e+01 6.700000e+01
    endloop
  endfacet
  facet normal 0.000000e+00 0.000000e+00 -1.000000e+00
    outer loop
      vertex   3.000000e+00 5.600000e+01 6.700000e+01
      vertex   6.700000e+01 5.600000e+01 6.700000e+01
      vertex   3.000000e+00 5.200000e+01 6.700000e+01
    endloop
  endfacet
  facet normal 0.000000e+00 0.000000e+00 -1.000000e+00
    outer loop
      vertex   3.000000e+00 5.200000e+01 6.700000e+01
      vertex   6.700000e+01 5.600000e+01 6.700000e+01
      vertex   6.700000e+01 5.200000e+01 6.700000e+01
    endloop
  endfacet
  facet normal -1.000000e+00 -0.000000e+00 -0.000000e+00
    outer loop
      vertex   6.700000e+01 5.600000e+01 6.700000e+01
      vertex   6.700000e+01 5.600000e+01 6.300000e+01
      vertex   6.700000e+01 5.200000e+01 6.700000e+01
    endloop
  endfacet
  facet normal -1.000000e+00 0.000000e+00 0.000000e+00
    outer loop
      vertex   6.700000e+01 5.200000e+01 6.700000e+01
      vertex   6.700000e+01 5.600000e+01 6.300000e+01
      vertex   6.700000e+01 5.200000e+01 6.300000e+01
    endloop
  endfacet
  facet normal 0.000000e+00 0.000000e+00 1.000000e+00
    outer loop
      vertex   6.700000e+01 5.600000e+01 6.300000e+01
      vertex   3.000000e+00 5.600000e+01 6.300000e+01
      vertex   6.700000e+01 5.200000e+01 6.300000e+01
    endloop
  endfacet
  facet normal 0.000000e+00 0.000000e+00 1.000000e+00
    outer loop
      vertex   6.700000e+01 5.200000e+01 6.300000e+01
      vertex   3.000000e+00 5.600000e+01 6.300000e+01
      vertex   3.000000e+00 5.200000e+01 6.300000e+01
    endloop
  endfacet
  facet normal 1.000000e+00 0.000000e+00 -0.000000e+00
    outer loop
      vertex   3.000000e+00 5.600000e+01 5.500000e+01
      vertex   3.000000e+00 5.600000e+01 5.900000e+01
      vertex   3.000000e+00 5.200000e+01 5.500000e+01
    endloop
  endfacet
  facet normal 1.000000e+00 0.000000e+00 0.000000e+00
    outer loop
      vertex   3.000000e+00 5.200000e+01 5.500000e+01
      vertex   3.000000e+00 5.600000e+01 5.900000e+01
      vertex   3.000000e+00 5.200000e+01 5.900000e+01
    endloop
  endfacet
  facet normal 0.000000e+00 0.000000e+00 -1.000000e+00
    outer loop
      vertex   3.000000e+00 5.600000e+01 5.900000e+01
      vertex   6.700000e+01 5.600000e+01 5.900000e+01
      vertex   3.000000e+00 5.200000e+01 5.900000e+01
    endloop
  endfacet
  facet normal 0.000000e+00 0.000000e+00 -1.000000e+00
    outer loop
      vertex   3.000000e+00 5.200000e+01 5.900000e+01
      vertex   6.700000e+01 5.600000e+01 5.900000e+01
      vertex   6.700000e+01 5.200000e+01 5.900000e+01
    endloop
  endfacet
  facet normal -1.000000e+00 -0.000000e+00 -0.000000e+00
    outer loop
      vertex   6.700000e+01 5.600000e+01 5.900000e+01
      vertex   6.700000e+01 5.600000e+01 5.500000e+01
      vertex   6.700000e+01 5.200000e+01 5.900000e+01
    endloop
  endfacet
  facet normal -1.000000e+00 0.000000e+00 0.000000e+00
    outer loop
      vertex   6.700000e+01 5.200000e+01 5.900000e+01
      vertex   6.700000e+01 5.600000e+01 5.500000e+01
      vertex   6.700000e+01 5.200000e+01 5.500000e+01
    endloop
  endfacet
  facet normal 0.000000e+00 0.000000e+00 1.000000e+00
    outer loop
      vertex   6.700000e+01 5.600000e+01 5.500000e+01
      vertex   3.000000e+00 5.600000e+01 5.500000e+01
      vertex   6.700000e+01 5.200000e+01 5.500000e+01
    endloop
  endfacet
  facet normal 0.000000e+00 0.000000e+00 1.000000e+00
    outer loop
      vertex   6.700000e+01 5.200000e+01 5.500000e+01
      vertex   3.000000e+00 5.600000e+01 5.500000e+01
      vertex   3.000000e+00 5.200000e+01 5.500000e+01
    endloop
  endfacet
  facet normal 1.000000e+00 0.000000e+00 -0.000000e+00
    outer loop
      vertex   3.000000e+00 5.600000e+01 4.700000e+01
      vertex   3.000000e+00 5.600000e+01 5.100000e+01
      vertex   3.000000e+00 5.200000e+01 4.700000e+01
    endloop
  endfacet
  facet normal 1.000000e+00 0.000000e+00 0.000000e+00
    outer loop
      vertex   3.000000e+00 5.200000e+01 4.700000e+01
      vertex   3.000000e+00 5.600000e+01 5.100000e+01
      vertex   3.000000e+00 5.200000e+01 5.100000e+01
    endloop
  endfacet
  facet normal 0.000000e+00 0.000000e+00 -1.000000e+00
    outer loop
      vertex   3.000000e+00 5.600000e+01 5.100000e+01
      vertex   6.700000e+01 5.600000e+01 5.100000e+01
      vertex   3.000000e+00 5.200000e+01 5.100000e+01
    endloop
  endfacet
  facet normal 0.000000e+00 0.000000e+00 -1.000000e+00
    outer loop
      vertex   3.000000e+00 5.200000e+01 5.100000e+01
      vertex   6.700000e+01 5.600000e+01 5.100000e+01
      vertex   6.700000e+01 5.200000e+01 5.100000e+01
    endloop
  endfacet
  facet normal -1.000000e+00 -0.000000e+00 -0.000000e+00
    outer loop
      vertex   6.700000e+01 5.600000e+01 5.100000e+01
      vertex   6.700000e+01 5.600000e+01 4.700000e+01
      vertex   6.700000e+01 5.200000e+01 5.100000e+01
    endloop
  endfacet
  facet normal -1.000000e+00 0.000000e+00 0.000000e+00
    outer loop
      vertex   6.700000e+01 5.200000e+01 5.100000e+01
      vertex   6.700000e+01 5.600000e+01 4.700000e+01
      vertex   6.700000e+01 5.200000e+01 4.700000e+01
    endloop
  endfacet
  facet normal 0.000000e+00 0.000000e+00 1.000000e+00
    outer loop
      vertex   6.700000e+01 5.600000e+01 4.700000e+01
      vertex   3.000000e+00 5.600000e+01 4.700000e+01
      vertex   6.700000e+01 5.200000e+01 4.700000e+01
    endloop
  endfacet
  facet normal 0.000000e+00 0.000000e+00 1.000000e+00
    outer loop
      vertex   6.700000e+01 5.200000e+01 4.700000e+01
      vertex   3.000000e+00 5.600000e+01 4.700000e+01
      vertex   3.000000e+00 5.200000e+01 4.700000e+01
    endloop
  endfacet
  facet normal -1.000000e+00 0.000000e+00 0.000000e+00
    outer loop
      vertex   6.700000e+01 2.950000e+01 7.200000e+01
      vertex   6.700000e+01 3.350000e+01 7.200000e+01
      vertex   6.700000e+01 2.950000e+01 7.000000e+01
    endloop
  endfacet
  facet normal -1.000000e+00 0.000000e+00 0.000000e+00
    outer loop
      vertex   6.700000e+01 2.950000e+01 7.000000e+01
      vertex   6.700000e+01 3.350000e+01 7.200000e+01
      vertex   6.700000e+01 3.350000e+01 7.000000e+01
    endloop
  endfacet
  facet normal -0.000000e+00 -1.000000e+00 -0.000000e+00
    outer loop
      vertex   6.700000e+01 3.350000e+01 7.200000e+01
      vertex   3.000000e+00 3.350000e+01 7.200000e+01
      vertex   6.700000e+01 3.350000e+01 7.000000e+01
    endloop
  endfacet
  facet normal 0.000000e+00 -1.000000e+00 0.000000e+00
    outer loop
      vertex   6.700000e+01 3.350000e+01 7.000000e+01
      vertex   3.000000e+00 3.350000e+01 7.200000e+01
      vertex   3.000000e+00 3.350000e+01 7.000000e+01
    endloop
  endfacet
  facet normal 1.000000e+00 0.000000e+00 -8.881784e-16
    outer loop
      vertex   3.000000e+00 3.350000e+01 7.200000e+01
      vertex   3.000000e+00 2.950000e+01 7.200000e+01
      vertex   3.000000e+00 3.350000e+01 7.000000e+01
    endloop
  endfacet
  facet normal 1.000000e+00 0.000000e+00 -8.881784e-16
    outer loop
      vertex   3.000000e+00 3.350000e+01 7.000000e+01
      vertex   3.000000e+00 2.950000e+01 7.200000e+01
      vertex   3.000000e+00 2.950000e+01 7.000000e+01
    endloop
  endfacet
  facet normal -0.000000e+00 1.000000e+00 0.000000e+00
    outer loop
      vertex   3.000000e+00 2.950000e+01 7.200000e+01
      vertex   6.700000e+01 2.950000e+01 7.200000e+01
      vertex   3.000000e+00 2.950000e+01 7.000000e+01
    endloop
  endfacet
  facet normal 0.000000e+00 1.000000e+00 0.000000e+00
    outer loop
      vertex   3.000000e+00 2.950000e+01 7.000000e+01
      vertex   6.700000e+01 2.950000e+01 7.200000e+01
      vertex   6.700000e+01 2.950000e+01 7.000000e+01
    endloop
  endfacet
  facet normal -1.000000e+00 0.000000e+00 0.000000e+00
    outer loop
      vertex   6.700000e+01 3.000000e+00 7.200000e+01
      vertex   6.700000e+01 7.000000e+00 7.200000e+01
      vertex   6.700000e+01 3.000000e+00 7.000000e+01
    endloop
  endfacet
  facet normal -1.000000e+00 0.000000e+00 0.000000e+00
    outer loop
      vertex   6.700000e+01 3.000000e+00 7.000000e+01
      vertex   6.700000e+01 7.000000e+00 7.200000e+01
      vertex   6.700000e+01 7.000000e+00 7.000000e+01
    endloop
  endfacet
  facet normal -0.000000e+00 -1.000000e+00 -0.000000e+00
    outer loop
      vertex   6.700000e+01 7.000000e+00 7.200000e+01
      vertex   3.000000e+00 7.000000e+00 7.200000e+01
      vertex   6.700000e+01 7.000000e+00 7.000000e+01
    endloop
  endfacet
  facet normal 0.000000e+00 -1.000000e+00 0.000000e+00
    outer loop
      vertex   6.700000e+01 7.000000e+00 7.000000e+01
      vertex   3.000000e+00 7.000000e+00 7.200000e+01
      vertex   3.000000e+00 7.000000e+00 7.000000e+01
    endloop
  endfacet
  facet normal 1.000000e+00 0.000000e+00 0.000000e+00
    outer loop
      vertex   3.000000e+00 7.000000e+00 7.200000e+01
      vertex   3.000000e+00 3.000000e+00 7.200000e+01
      vertex   3.000000e+00 7.000000e+00 7.000000e+01
    endloop
  endfacet
  facet normal 1.000000e+00 0.000000e+00 0.000000e+00
    outer loop
      vertex   3.000000e+00 7.000000e+00 7.000000e+01
      vertex   3.000000e+00 3.000000e+00 7.200000e+01
      vertex   3.000000e+00 3.000000e+00 7.000000e+01
    endloop
  endfacet
  facet normal -0.000000e+00 1.000000e+00 0.000000e+00
    outer loop
      vertex   3.000000e+00 3.000000e+00 7.200000e+01
      vertex   6.700000e+01 3.000000e+00 7.200000e+01
      vertex   3.000000e+00 3.000000e+00 7.000000e+01
    endloop
  endfacet
  facet normal 0.000000e+00 1.000000e+00 0.000000e+00
    outer loop
      vertex   3.000000e+00 3.000000e+00 7.000000e+01
      vertex   6.700000e+01 3.000000e+00 7.200000e+01
      vertex   6.700000e+01 3.000000e+00 7.000000e+01
    endloop
  endfacet
  facet normal -1.000000e+00 0.000000e+00 0.000000e+00
    outer loop
      vertex   6.700000e+01 3.825000e+01 7.200000e+01
      vertex   6.700000e+01 4.225000e+01 7.200000e+01
      vertex   6.700000e+01 3.825000e+01 7.000000e+01
    endloop
  endfacet
  facet normal -1.000000e+00 0.000000e+00 0.000000e+00
    outer loop
      vertex   6.700000e+01 3.825000e+01 7.000000e+01
      vertex   6.700000e+01 4.225000e+01 7.200000e+01
      vertex   6.700000e+01 4.225000e+01 7.000000e+01
    endloop
  endfacet
  facet normal -0.000000e+00 -1.000000e+00 -0.000000e+00
    outer loop
      vertex   6.700000e+01 4.225000e+01 7.200000e+01
      vertex   3.000000e+00 4.225000e+01 7.200000e+01
      vertex   6.700000e+01 4.225000e+01 7.000000e+01
    endloop
  endfacet
  facet normal 0.000000e+00 -1.000000e+00 0.000000e+00
    outer loop
      vertex   6.700000e+01 4.225000e+01 7.000000e+01
      vertex   3.000000e+00 4.225000e+01 7.200000e+01
      vertex   3.000000e+00 4.225000e+01 7.000000e+01
    endloop
  endfacet
  facet normal 1.000000e+00 0.000000e+00 0.000000e+00
    outer loop
      vertex   3.000000e+00 4.225000e+01 7.200000e+01
      vertex   3.000000e+00 3.825000e+01 7.200000e+01
      vertex   3.000000e+00 4.225000e+01 7.000000e+01
    endloop
  endfacet
  facet normal 1.000000e+00 0.000000e+00 0.000000e+00
    outer loop
      vertex   3.000000e+00 4.225000e+01 7.000000e+01
      vertex   3.000000e+00 3.825000e+01 7.200000e+01
      vertex   3.000000e+00 3.825000e+01 7.000000e+01
    endloop
  endfacet
  facet normal -0.000000e+00 1.000000e+00 0.000000e+00
    outer loop
      vertex   3.000000e+00 3.825000e+01 7.200000e+01
      vertex   6.700000e+01 3.825000e+01 7.200000e+01
      vertex   3.000000e+00 3.825000e+01 7.000000e+01
    endloop
  endfacet
  facet normal 0.000000e+00 1.000000e+00 0.000000e+00
    outer loop
      vertex   3.000000e+00 3.825000e+01 7.000000e+01
      vertex   6.700000e+01 3.825000e+01 7.200000e+01
      vertex   6.700000e+01 3.825000e+01 7.000000e+01
    endloop
  endfacet
  facet normal -1.000000e+00 0.000000e+00 0.000000e+00
    outer loop
      vertex   6.700000e+01 2.075000e+01 7.200000e+01
      vertex   6.700000e+01 2.475000e+01 7.200000e+01
      vertex   6.700000e+01 2.075000e+01 7.000000e+01
    endloop
  endfacet
  facet normal -1.000000e+00 0.000000e+00 0.000000e+00
    outer loop
      vertex   6.700000e+01 2.075000e+01 7.000000e+01
      vertex   6.700000e+01 2.475000e+01 7.200000e+01
      vertex   6.700000e+01 2.475000e+01 7.000000e+01
    endloop
  endfacet
  facet normal -0.000000e+00 -1.000000e+00 -0.000000e+00
    outer loop
      vertex   6.700000e+01 2.475000e+01 7.200000e+01
      vertex   3.000000e+00 2.475000e+01 7.200000e+01
      vertex   6.700000e+01 2.475000e+01 7.000000e+01
    endloop
  endfacet
  facet normal 0.000000e+00 -1.000000e+00 0.000000e+00
    outer loop
      vertex   6.700000e+01 2.475000e+01 7.000000e+01
      vertex   3.000000e+00 2.475000e+01 7.200000e+01
      vertex   3.000000e+00 2.475000e+01 7.000000e+01
    endloop
  endfacet
  facet normal 1.000000e+00 0.000000e+00 -8.881784e-16
    outer loop
      vertex   3.000000e+00 2.475000e+01 7.200000e+01
      vertex   3.000000e+00 2.075000e+01 7.200000e+01
      vertex   3.000000e+00 2.475000e+01 7.000000e+01
    endloop
  endfacet
  facet normal 1.000000e+00 0.000000e+00 -8.881784e-16
    outer loop
      vertex   3.000000e+00 2.475000e+01 7.000000e+01
      vertex   3.000000e+00 2.075000e+01 7.200000e+01
      vertex   3.000000e+00 2.075000e+01 7.000000e+01
    endloop
  endfacet
  facet normal -0.000000e+00 1.000000e+00 0.000000e+00
    outer loop
      vertex   3.000000e+00 2.075000e+01 7.200000e+01
      vertex   6.700000e+01 2.075000e+01 7.200000e+01
      vertex   3.000000e+00 2.075000e+01 7.000000e+01
    endloop
  endfacet
  facet normal 0.000000e+00 1.000000e+00 0.000000e+00
    outer loop
      vertex   3.000000e+00 2.075000e+01 7.000000e+01
      vertex   6.700000e+01 2.075000e+01 7.200000e+01
      vertex   6.700000e+01 2.075000e+01 7.000000e+01
    endloop
  endfacet
  facet normal -1.000000e+00 0.000000e+00 0.000000e+00
    outer loop
      vertex   6.700000e+01 1.200000e+01 7.200000e+01
      vertex   6.700000e+01 1.600000e+01 7.200000e+01
      vertex   6.700000e+01 1.200000e+01 7.000000e+01
    endloop
  endfacet
  facet normal -1.000000e+00 0.000000e+00 0.000000e+00
    outer loop
      vertex   6.700000e+01 1.200000e+01 7.000000e+01
      vertex   6.700000e+01 1.600000e+01 7.200000e+01
      vertex   6.700000e+01 1.600000e+01 7.000000e+01
    endloop
  endfacet
  facet normal -0.000000e+00 -1.000000e+00 -0.000000e+00
    outer loop
      vertex   6.700000e+01 1.600000e+01 7.200000e+01
      vertex   3.000000e+00 1.600000e+01 7.200000e+01
      vertex   6.700000e+01 1.600000e+01 7.000000e+01
    endloop
  endfacet
  facet normal 0.000000e+00 -1.000000e+00 0.000000e+00
    outer loop
      vertex   6.700000e+01 1.600000e+01 7.000000e+01
      vertex   3.000000e+00 1.600000e+01 7.200000e+01
      vertex   3.000000e+00 1.600000e+01 7.000000e+01
    endloop
  endfacet
  facet normal 1.000000e+00 0.000000e+00 -8.881784e-16
    outer loop
      vertex   3.000000e+00 1.600000e+01 7.200000e+01
      vertex   3.000000e+00 1.200000e+01 7.200000e+01
      vertex   3.000000e+00 1.600000e+01 7.000000e+01
    endloop
  endfacet
  facet normal 1.000000e+00 0.000000e+00 -8.881784e-16
    outer loop
      vertex   3.000000e+00 1.600000e+01 7.000000e+01
      vertex   3.000000e+00 1.200000e+01 7.200000e+01
      vertex   3.000000e+00 1.200000e+01 7.000000e+01
    endloop
  endfacet
  facet normal -0.000000e+00 1.000000e+00 0.000000e+00
    outer loop
      vertex   3.000000e+00 1.200000e+01 7.200000e+01
      vertex   6.700000e+01 1.200000e+01 7.200000e+01
      vertex   3.000000e+00 1.200000e+01 7.000000e+01
    endloop
  endfacet
  facet normal 0.000000e+00 1.000000e+00 0.000000e+00
    outer loop
      vertex   3.000000e+00 1.200000e+01 7.000000e+01
      vertex   6.700000e+01 1.200000e+01 7.200000e+01
      vertex   6.700000e+01 1.200000e+01 7.000000e+01
    endloop
  endfacet
  facet normal -1.000000e+00 0.000000e+00 0.000000e+00
    outer loop
      vertex   6.700000e+01 4.700000e+01 7.200000e+01
      vertex   6.700000e+01 5.100000e+01 7.200000e+01
      vertex   6.700000e+01 4.700000e+01 7.000000e+01
    endloop
  endfacet
  facet normal -1.000000e+00 0.000000e+00 0.000000e+00
    outer loop
      vertex   6.700000e+01 4.700000e+01 7.000000e+01
      vertex   6.700000e+01 5.100000e+01 7.200000e+01
      vertex   6.700000e+01 5.100000e+01 7.000000e+01
    endloop
  endfacet
  facet normal -0.000000e+00 -1.000000e+00 -0.000000e+00
    outer loop
      vertex   6.700000e+01 5.100000e+01 7.200000e+01
      vertex   3.000000e+00 5.100000e+01 7.200000e+01
      vertex   6.700000e+01 5.100000e+01 7.000000e+01
    endloop
  endfacet
  facet normal 0.000000e+00 -1.000000e+00 0.000000e+00
    outer loop
      vertex   6.700000e+01 5.100000e+01 7.000000e+01
      vertex   3.000000e+00 5.100000e+01 7.200000e+01
      vertex   3.000000e+00 5.100000e+01 7.000000e+01
    endloop
  endfacet
  facet normal 1.000000e+00 0.000000e+00 0.000000e+00
    outer loop
      vertex   3.000000e+00 5.100000e+01 7.200000e+01
      vertex   3.000000e+00 4.700000e+01 7.200000e+01
      vertex   3.000000e+00 5.100000e+01 7.000000e+01
    endloop
  endfacet
  facet normal 1.000000e+00 0.000000e+00 0.000000e+00
    outer loop
      vertex   3.000000e+00 5.100000e+01 7.000000e+01
      vertex   3.000000e+00 4.700000e+01 7.200000e+01
      vertex   3.000000e+00 4.700000e+01 7.000000e+01
    endloop
  endfacet
  facet normal -0.000000e+00 1.000000e+00 0.000000e+00
    outer loop
      vertex   3.000000e+00 4.700000e+01 7.200000e+01
      vertex   6.700000e+01 4.700000e+01 7.200000e+01
      vertex   3.000000e+00 4.700000e+01 7.000000e+01
    endloop
  endfacet
  facet normal 0.000000e+00 1.000000e+00 0.000000e+00
    outer loop
      vertex   3.000000e+00 4.700000e+01 7.000000e+01
      vertex   6.700000e+01 4.700000e+01 7.200000e+01
      vertex   6.700000e+01 4.700000e+01 7.000000e+01
    endloop
  endfacet
  facet normal 0.000000e+00 1.000000e+00 0.000000e+00
    outer loop
      vertex   1.000000e-01 5.390000e+01 2.500000e+01
      vertex   1.000000e-01 5.390000e+01 3.000000e+01
      vertex   7.000000e+01 5.390000e+01 2.500000e+01
    endloop
  endfacet
  facet normal 0.000000e+00 1.000000e+00 -0.000000e+00
    outer loop
      vertex   7.000000e+01 5.390000e+01 2.500000e+01
      vertex   1.000000e-01 5.390000e+01 3.000000e+01
      vertex   7.000000e+01 5.390000e+01 3.000000e+01
    endloop
  endfacet
  facet normal -1.000000e+00 -0.000000e+00 -0.000000e+00
    outer loop
      vertex   1.000000e-01 5.390000e+01 3.000000e+01
      vertex   1.000000e-01 5.390000e+01 2.500000e+01
      vertex   1.000000e-01 1.000000e+01 3.000000e+01
    endloop
  endfacet
  facet normal -1.000000e+00 0.000000e+00 0.000000e+00
    outer loop
      vertex   1.000000e-01 1.000000e+01 3.000000e+01
      vertex   1.000000e-01 5.390000e+01 2.500000e+01
      vertex   1.000000e-01 1.000000e+01 2.500000e+01
    endloop
  endfacet
  facet normal 0.000000e+00 -1.000000e+00 0.000000e+00
    outer loop
      vertex   1.000000e-01 1.000000e-01 5.000000e+01
      vertex   1.000000e-01 1.000000e-01 4.500000e+01
      vertex   6.990000e+01 1.000000e-01 5.000000e+01
    endloop
  endfacet
  facet normal 0.000000e+00 -1.000000e+00 -0.000000e+00
    outer loop
      vertex   6.990000e+01 1.000000e-01 5.000000e+01
      vertex   1.000000e-01 1.000000e-01 4.500000e+01
      vertex   6.990000e+01 1.000000e-01 4.500000e+01
    endloop
  endfacet
  facet normal 1.000000e+00 -0.000000e+00 0.000000e+00
    outer loop
      vertex   6.990000e+01 1.000000e-01 5.000000e+01
      vertex   6.990000e+01 1.000000e-01 4.500000e+01
      vertex   6.990000e+01 1.000000e+01 5.000000e+01
    endloop
  endfacet
  facet normal 1.000000e+00 0.000000e+00 0.000000e+00
    outer loop
      vertex   6.990000e+01 1.000000e+01 5.000000e+01
      vertex   6.990000e+01 1.000000e-01 4.500000e+01
      vertex   6.990000e+01 1.000000e+01 4.500000e+01
    endloop
  endfacet
  facet normal 0.000000e+00 -0.000000e+00 -1.000000e+00
    outer loop
      vertex   6.990000e+01 1.000000e+01 4.500000e+01
      vertex   6.990000e+01 1.000000e-01 4.500000e+01
      vertex   6.800000e+01 2.000000e+00 4.500000e+01
    endloop
  endfacet
  facet normal 0.000000e+00 -0.000000e+00 -1.000000e+00
    outer loop
      vertex   6.800000e+01 2.000000e+00 4.500000e+01
      vertex   6.990000e+01 1.000000e-01 4.500000e+01
      vertex   1.000000e-01 1.000000e-01 4.500000e+01
    endloop
  endfacet
  facet normal 0.000000e+00 0.000000e+00 -1.000000e+00
    outer loop
      vertex   6.800000e+01 2.000000e+00 4.500000e+01
      vertex   1.000000e-01 1.000000e-01 4.500000e+01
      vertex   2.000000e+00 2.000000e+00 4.500000e+01
    endloop
  endfacet
  facet normal -0.000000e+00 0.000000e+00 -1.000000e+00
    outer loop
      vertex   2.000000e+00 2.000000e+00 4.500000e+01
      vertex   1.000000e-01 1.000000e-01 4.500000e+01
      vertex   1.000000e-01 1.000000e+01 4.500000e+01
    endloop
  endfacet
  facet normal 0.000000e+00 0.000000e+00 -1.000000e+00
    outer loop
      vertex   2.000000e+00 2.000000e+00 4.500000e+01
      vertex   1.000000e-01 1.000000e+01 4.500000e+01
      vertex   2.000000e+00 1.000000e+01 4.500000e+01
    endloop
  endfacet
  facet normal 0.000000e+00 0.000000e+00 -1.000000e+00
    outer loop
      vertex   6.800000e+01 2.000000e+00 4.500000e+01
      vertex   6.800000e+01 1.000000e+01 4.500000e+01
      vertex   6.990000e+01 1.000000e+01 4.500000e+01
    endloop
  endfacet
  facet normal -1.000000e+00 0.000000e+00 0.000000e+00
    outer loop
      vertex   1.000000e-01 1.000000e-01 4.500000e+01
      vertex   1.000000e-01 1.000000e-01 5.000000e+01
      vertex   1.000000e-01 1.000000e+01 4.500000e+01
    endloop
  endfacet
  facet normal -1.000000e+00 0.000000e+00 0.000000e+00
    outer loop
      vertex   1.000000e-01 1.000000e+01 4.500000e+01
      vertex   1.000000e-01 1.000000e-01 5.000000e+01
      vertex   1.000000e-01 1.000000e+01 5.000000e+01
    endloop
  endfacet
  facet normal 0.000000e+00 -1.000000e+00 0.000000e+00
    outer loop
      vertex   -2.000000e+00 1.000000e+01 5.000000e+01
      vertex   -2.000000e+00 1.000000e+01 3.000000e+01
      vertex   1.000000e-01 1.000000e+01 4.500000e+01
    endloop
  endfacet
  facet normal 0.000000e+00 -1.000000e+00 -0.000000e+00
    outer loop
      vertex   1.000000e-01 1.000000e+01 4.500000e+01
      vertex   -2.000000e+00 1.000000e+01 3.000000e+01
      vertex   1.000000e-01 1.000000e+01 3.000000e+01
    endloop
  endfacet
  facet normal 0.000000e+00 -1.000000e+00 0.000000e+00
    outer loop
      vertex   1.000000e-01 1.000000e+01 4.500000e+01
      vertex   1.000000e-01 1.000000e+01 3.000000e+01
      vertex   2.000000e+00 1.000000e+01 4.500000e+01
    endloop
  endfacet
  facet normal 0.000000e+00 -1.000000e+00 -0.000000e+00
    outer loop
      vertex   2.000000e+00 1.000000e+01 4.500000e+01
      vertex   1.000000e-01 1.000000e+01 3.000000e+01
      vertex   2.000000e+00 1.000000e+01 2.500000e+01
    endloop
  endfacet
  facet normal 0.000000e+00 -1.000000e+00 0.000000e+00
    outer loop
      vertex   2.000000e+00 1.000000e+01 2.500000e+01
      vertex   1.000000e-01 1.000000e+01 3.000000e+01
      vertex   1.000000e-01 1.000000e+01 2.500000e+01
    endloop
  endfacet
  facet normal 0.000000e+00 -1.000000e+00 0.000000e+00
    outer loop
      vertex   1.000000e-01 1.000000e+01 4.500000e+01
      vertex   1.000000e-01 1.000000e+01 5.000000e+01
      vertex   -2.000000e+00 1.000000e+01 5.000000e+01
    endloop
  endfacet
  facet normal -0.000000e+00 -0.000000e+00 -1.000000e+00
    outer loop
      vertex   1.000000e-01 1.000000e+01 5.000000e+01
      vertex   1.000000e-01 1.000000e-01 5.000000e+01
      vertex   -2.000000e+00 1.000000e+01 5.000000e+01
    endloop
  endfacet
  facet normal 0.000000e+00 0.000000e+00 -1.000000e+00
    outer loop
      vertex   -2.000000e+00 1.000000e+01 5.000000e+01
      vertex   1.000000e-01 1.000000e-01 5.000000e+01
      vertex   -2.000000e+00 -2.000000e+00 5.000000e+01
    endloop
  endfacet
  facet normal 0.000000e+00 0.000000e+00 -1.000000e+00
    outer loop
      vertex   -2.000000e+00 -2.000000e+00 5.000000e+01
      vertex   1.000000e-01 1.000000e-01 5.000000e+01
      vertex   6.990000e+01 1.000000e-01 5.000000e+01
    endloop
  endfacet
  facet normal 0.000000e+00 0.000000e+00 -1.000000e+00
    outer loop
      vertex   -2.000000e+00 -2.000000e+00 5.000000e+01
      vertex   6.990000e+01 1.000000e-01 5.000000e+01
      vertex   7.200000e+01 -2.000000e+00 5.000000e+01
    endloop
  endfacet
  facet normal 0.000000e+00 0.000000e+00 -1.000000e+00
    outer loop
      vertex   7.200000e+01 -2.000000e+00 5.000000e+01
      vertex   6.990000e+01 1.000000e-01 5.000000e+01
      vertex   7.200000e+01 1.000000e+01 5.000000e+01
    endloop
  endfacet
  facet normal -0.000000e+00 0.000000e+00 -1.000000e+00
    outer loop
      vertex   7.200000e+01 1.000000e+01 5.000000e+01
      vertex   6.990000e+01 1.000000e-01 5.000000e+01
      vertex   6.990000e+01 1.000000e+01 5.000000e+01
    endloop
  endfacet
  facet normal 1.000000e+00 -2.376039e-08 0.000000e+00
    outer loop
      vertex   7.000000e+01 5.390000e+01 3.000000e+01
      vertex   7.000000e+01 1.000000e+01 3.000000e+01
      vertex   7.000000e+01 5.390000e+01 2.500000e+01
    endloop
  endfacet
  facet normal 1.000000e+00 -2.376039e-08 0.000000e+00
    outer loop
      vertex   7.000000e+01 5.390000e+01 2.500000e+01
      vertex   7.000000e+01 1.000000e+01 3.000000e+01
      vertex   7.000000e+01 1.000000e+01 2.500000e+01
    endloop
  endfacet
  facet normal -0.000000e+00 0.000000e+00 -1.000000e+00
    outer loop
      vertex   7.000000e+01 5.390000e+01 2.500000e+01
      vertex   6.800000e+01 5.200000e+01 2.500000e+01
      vertex   1.000000e-01 5.390000e+01 2.500000e+01
    endloop
  endfacet
  facet normal 0.000000e+00 0.000000e+00 -1.000000e+00
    outer loop
      vertex   1.000000e-01 5.390000e+01 2.500000e+01
      vertex   6.800000e+01 5.200000e+01 2.500000e+01
      vertex   2.000000e+00 5.200000e+01 2.500000e+01
    endloop
  endfacet
  facet normal 0.000000e+00 0.000000e+00 -1.000000e+00
    outer loop
      vertex   1.000000e-01 5.390000e+01 2.500000e+01
      vertex   2.000000e+00 5.200000e+01 2.500000e+01
      vertex   1.000000e-01 1.000000e+01 2.500000e+01
    endloop
  endfacet
  facet normal 0.000000e+00 0.000000e+00 -1.000000e+00
    outer loop
      vertex   1.000000e-01 1.000000e+01 2.500000e+01
      vertex   2.000000e+00 5.200000e+01 2.500000e+01
      vertex   2.000000e+00 1.000000e+01 2.500000e+01
    endloop
  endfacet
  facet normal 0.000000e+00 0.000000e+00 -1.000000e+00
    outer loop
      vertex   7.000000e+01 5.390000e+01 2.500000e+01
      vertex   7.000000e+01 1.000000e+01 2.500000e+01
      vertex   6.800000e+01 5.200000e+01 2.500000e+01
    endloop
  endfacet
  facet normal 0.000000e+00 0.000000e+00 -1.000000e+00
    outer loop
      vertex   6.800000e+01 5.200000e+01 2.500000e+01
      vertex   7.000000e+01 1.000000e+01 2.500000e+01
      vertex   6.800000e+01 1.000000e+01 2.500000e+01
    endloop
  endfacet
  facet normal 0.000000e+00 0.000000e+00 -1.000000e+00
    outer loop
      vertex   6.700000e+01 3.350000e+01 7.000000e+01
      vertex   6.800000e+01 5.200000e+01 7.000000e+01
      vertex   6.700000e+01 2.950000e+01 7.000000e+01
    endloop
  endfacet
  facet normal 0.000000e+00 0.000000e+00 -1.000000e+00
    outer loop
      vertex   6.700000e+01 2.950000e+01 7.000000e+01
      vertex   6.800000e+01 5.200000e+01 7.000000e+01
      vertex   6.700000e+01 2.475000e+01 7.000000e+01
    endloop
  endfacet
  facet normal 0.000000e+00 -0.000000e+00 -1.000000e+00
    outer loop
      vertex   6.700000e+01 2.950000e+01 7.000000e+01
      vertex   6.700000e+01 2.475000e+01 7.000000e+01
      vertex   3.000000e+00 2.475000e+01 7.000000e+01
    endloop
  endfacet
  facet normal 0.000000e+00 0.000000e+00 -1.000000e+00
    outer loop
      vertex   6.800000e+01 5.200000e+01 7.000000e+01
      vertex   6.700000e+01 3.350000e+01 7.000000e+01
      vertex   6.700000e+01 3.825000e+01 7.000000e+01
    endloop
  endfacet
  facet normal 0.000000e+00 -0.000000e+00 -1.000000e+00
    outer loop
      vertex   6.700000e+01 3.825000e+01 7.000000e+01
      vertex   6.700000e+01 3.350000e+01 7.000000e+01
      vertex   3.000000e+00 3.350000e+01 7.000000e+01
    endloop
  endfacet
  facet normal -0.000000e+00 0.000000e+00 -1.000000e+00
    outer loop
      vertex   6.700000e+01 3.825000e+01 7.000000e+01
      vertex   3.000000e+00 3.350000e+01 7.000000e+01
      vertex   3.000000e+00 3.825000e+01 7.000000e+01
    endloop
  endfacet
  facet normal -0.000000e+00 -0.000000e+00 -1.000000e+00
    outer loop
      vertex   3.000000e+00 3.825000e+01 7.000000e+01
      vertex   3.000000e+00 3.350000e+01 7.000000e+01
      vertex   2.000000e+00 5.200000e+01 7.000000e+01
    endloop
  endfacet
  facet normal 0.000000e+00 0.000000e+00 -1.000000e+00
    outer loop
      vertex   3.000000e+00 3.825000e+01 7.000000e+01
      vertex   2.000000e+00 5.200000e+01 7.000000e+01
      vertex   3.000000e+00 4.225000e+01 7.000000e+01
    endloop
  endfacet
  facet normal 0.000000e+00 0.000000e+00 -1.000000e+00
    outer loop
      vertex   3.000000e+00 4.225000e+01 7.000000e+01
      vertex   2.000000e+00 5.200000e+01 7.000000e+01
      vertex   3.000000e+00 4.700000e+01 7.000000e+01
    endloop
  endfacet
  facet normal 0.000000e+00 0.000000e+00 -1.000000e+00
    outer loop
      vertex   3.000000e+00 4.225000e+01 7.000000e+01
      vertex   3.000000e+00 4.700000e+01 7.000000e+01
      vertex   6.700000e+01 4.700000e+01 7.000000e+01
    endloop
  endfacet
  facet normal -0.000000e+00 -0.000000e+00 -1.000000e+00
    outer loop
      vertex   3.000000e+00 3.350000e+01 7.000000e+01
      vertex   3.000000e+00 2.950000e+01 7.000000e+01
      vertex   2.000000e+00 5.200000e+01 7.000000e+01
    endloop
  endfacet
  facet normal 0.000000e+00 0.000000e+00 -1.000000e+00
    outer loop
      vertex   2.000000e+00 5.200000e+01 7.000000e+01
      vertex   3.000000e+00 2.950000e+01 7.000000e+01
      vertex   3.000000e+00 2.475000e+01 7.000000e+01
    endloop
  endfacet
  facet normal 0.000000e+00 0.000000e+00 -1.000000e+00
    outer loop
      vertex   2.000000e+00 5.200000e+01 7.000000e+01
      vertex   3.000000e+00 2.475000e+01 7.000000e+01
      vertex   2.000000e+00 2.000000e+00 7.000000e+01
    endloop
  endfacet
  facet normal 0.000000e+00 0.000000e+00 -1.000000e+00
    outer loop
      vertex   2.000000e+00 2.000000e+00 7.000000e+01
      vertex   3.000000e+00 2.475000e+01 7.000000e+01
      vertex   3.000000e+00 2.075000e+01 7.000000e+01
    endloop
  endfacet
  facet normal 0.000000e+00 0.000000e+00 -1.000000e+00
    outer loop
      vertex   2.000000e+00 2.000000e+00 7.000000e+01
      vertex   3.000000e+00 2.075000e+01 7.000000e+01
      vertex   3.000000e+00 1.600000e+01 7.000000e+01
    endloop
  endfacet
  facet normal 0.000000e+00 0.000000e+00 -1.000000e+00
    outer loop
      vertex   3.000000e+00 1.600000e+01 7.000000e+01
      vertex   3.000000e+00 2.075000e+01 7.000000e+01
      vertex   6.700000e+01 2.075000e+01 7.000000e+01
    endloop
  endfacet
  facet normal 0.000000e+00 0.000000e+00 -1.000000e+00
    outer loop
      vertex   3.000000e+00 1.600000e+01 7.000000e+01
      vertex   6.700000e+01 2.075000e+01 7.000000e+01
      vertex   6.700000e+01 1.600000e+01 7.000000e+01
    endloop
  endfacet
  facet normal 0.000000e+00 0.000000e+00 -1.000000e+00
    outer loop
      vertex   6.700000e+01 1.600000e+01 7.000000e+01
      vertex   6.700000e+01 2.075000e+01 7.000000e+01
      vertex   6.800000e+01 2.000000e+00 7.000000e+01
    endloop
  endfacet
  facet normal 0.000000e+00 0.000000e+00 -1.000000e+00
    outer loop
      vertex   6.700000e+01 1.600000e+01 7.000000e+01
      vertex   6.800000e+01 2.000000e+00 7.000000e+01
      vertex   6.700000e+01 1.200000e+01 7.000000e+01
    endloop
  endfacet
  facet normal 0.000000e+00 0.000000e+00 -1.000000e+00
    outer loop
      vertex   6.700000e+01 1.200000e+01 7.000000e+01
      vertex   6.800000e+01 2.000000e+00 7.000000e+01
      vertex   6.700000e+01 7.000000e+00 7.000000e+01
    endloop
  endfacet
  facet normal 0.000000e+00 -0.000000e+00 -1.000000e+00
    outer loop
      vertex   6.700000e+01 1.200000e+01 7.000000e+01
      vertex   6.700000e+01 7.000000e+00 7.000000e+01
      vertex   3.000000e+00 7.000000e+00 7.000000e+01
    endloop
  endfacet
  facet normal 0.000000e+00 0.000000e+00 -1.000000e+00
    outer loop
      vertex   3.000000e+00 2.950000e+01 7.000000e+01
      vertex   6.700000e+01 2.950000e+01 7.000000e+01
      vertex   3.000000e+00 2.475000e+01 7.000000e+01
    endloop
  endfacet
  facet normal 0.000000e+00 0.000000e+00 -1.000000e+00
    outer loop
      vertex   6.700000e+01 7.000000e+00 7.000000e+01
      vertex   6.800000e+01 2.000000e+00 7.000000e+01
      vertex   6.700000e+01 3.000000e+00 7.000000e+01
    endloop
  endfacet
  facet normal 0.000000e+00 -0.000000e+00 -1.000000e+00
    outer loop
      vertex   6.700000e+01 3.000000e+00 7.000000e+01
      vertex   6.800000e+01 2.000000e+00 7.000000e+01
      vertex   2.000000e+00 2.000000e+00 7.000000e+01
    endloop
  endfacet
  facet normal -0.000000e+00 0.000000e+00 -1.000000e+00
    outer loop
      vertex   6.700000e+01 3.000000e+00 7.000000e+01
      vertex   2.000000e+00 2.000000e+00 7.000000e+01
      vertex   3.000000e+00 3.000000e+00 7.000000e+01
    endloop
  endfacet
  facet normal -0.000000e+00 0.000000e+00 -1.000000e+00
    outer loop
      vertex   3.000000e+00 3.000000e+00 7.000000e+01
      vertex   2.000000e+00 2.000000e+00 7.000000e+01
      vertex   3.000000e+00 7.000000e+00 7.000000e+01
    endloop
  endfacet
  facet normal -0.000000e+00 0.000000e+00 -1.000000e+00
    outer loop
      vertex   3.000000e+00 7.000000e+00 7.000000e+01
      vertex   2.000000e+00 2.000000e+00 7.000000e+01
      vertex   3.000000e+00 1.200000e+01 7.000000e+01
    endloop
  endfacet
  facet normal 0.000000e+00 0.000000e+00 -1.000000e+00
    outer loop
      vertex   3.000000e+00 7.000000e+00 7.000000e+01
      vertex   3.000000e+00 1.200000e+01 7.000000e+01
      vertex   6.700000e+01 1.200000e+01 7.000000e+01
    endloop
  endfacet
  facet normal 0.000000e+00 0.000000e+00 -1.000000e+00
    outer loop
      vertex   6.700000e+01 3.825000e+01 7.000000e+01
      vertex   6.700000e+01 4.225000e+01 7.000000e+01
      vertex   6.800000e+01 5.200000e+01 7.000000e+01
    endloop
  endfacet
  facet normal 0.000000e+00 0.000000e+00 -1.000000e+00
    outer loop
      vertex   6.800000e+01 5.200000e+01 7.000000e+01
      vertex   6.700000e+01 4.225000e+01 7.000000e+01
      vertex   6.700000e+01 4.700000e+01 7.000000e+01
    endloop
  endfacet
  facet normal 0.000000e+00 0.000000e+00 -1.000000e+00
    outer loop
      vertex   6.800000e+01 5.200000e+01 7.000000e+01
      vertex   6.700000e+01 4.700000e+01 7.000000e+01
      vertex   6.700000e+01 5.100000e+01 7.000000e+01
    endloop
  endfacet
  facet normal 0.000000e+00 0.000000e+00 -1.000000e+00
    outer loop
      vertex   6.700000e+01 4.225000e+01 7.000000e+01
      vertex   3.000000e+00 4.225000e+01 7.000000e+01
      vertex   6.700000e+01 4.700000e+01 7.000000e+01
    endloop
  endfacet
  facet normal 0.000000e+00 0.000000e+00 -1.000000e+00
    outer loop
      vertex   6.700000e+01 2.075000e+01 7.000000e+01
      vertex   6.700000e+01 2.475000e+01 7.000000e+01
      vertex   6.800000e+01 2.000000e+00 7.000000e+01
    endloop
  endfacet
  facet normal 0.000000e+00 0.000000e+00 -1.000000e+00
    outer loop
      vertex   6.800000e+01 2.000000e+00 7.000000e+01
      vertex   6.700000e+01 2.475000e+01 7.000000e+01
      vertex   6.800000e+01 5.200000e+01 7.000000e+01
    endloop
  endfacet
  facet normal 0.000000e+00 -0.000000e+00 -1.000000e+00
    outer loop
      vertex   3.000000e+00 1.600000e+01 7.000000e+01
      vertex   3.000000e+00 1.200000e+01 7.000000e+01
      vertex   2.000000e+00 2.000000e+00 7.000000e+01
    endloop
  endfacet
  facet normal 0.000000e+00 0.000000e+00 -1.000000e+00
    outer loop
      vertex   6.700000e+01 5.100000e+01 7.000000e+01
      vertex   3.000000e+00 5.100000e+01 7.000000e+01
      vertex   6.800000e+01 5.200000e+01 7.000000e+01
    endloop
  endfacet
  facet normal -0.000000e+00 0.000000e+00 -1.000000e+00
    outer loop
      vertex   6.800000e+01 5.200000e+01 7.000000e+01
      vertex   3.000000e+00 5.100000e+01 7.000000e+01
      vertex   2.000000e+00 5.200000e+01 7.000000e+01
    endloop
  endfacet
  facet normal 0.000000e+00 0.000000e+00 -1.000000e+00
    outer loop
      vertex   2.000000e+00 5.200000e+01 7.000000e+01
      vertex   3.000000e+00 5.100000e+01 7.000000e+01
      vertex   3.000000e+00 4.700000e+01 7.000000e+01
    endloop
  endfacet
  facet normal 0.000000e+00 0.000000e+00 1.000000e+00
    outer loop
      vertex   6.700000e+01 2.950000e+01 7.200000e+01
      vertex   7.200000e+01 5.600000e+01 7.200000e+01
      vertex   6.700000e+01 3.350000e+01 7.200000e+01
    endloop
  endfacet
  facet normal 0.000000e+00 0.000000e+00 1.000000e+00
    outer loop
      vertex   6.700000e+01 3.350000e+01 7.200000e+01
      vertex   7.200000e+01 5.600000e+01 7.200000e+01
      vertex   6.700000e+01 3.825000e+01 7.200000e+01
    endloop
  endfacet
  facet normal 0.000000e+00 -0.000000e+00 1.000000e+00
    outer loop
      vertex   6.700000e+01 3.350000e+01 7.200000e+01
      vertex   6.700000e+01 3.825000e+01 7.200000e+01
      vertex   3.000000e+00 3.825000e+01 7.200000e+01
    endloop
  endfacet
  facet normal 0.000000e+00 0.000000e+00 1.000000e+00
    outer loop
      vertex   7.200000e+01 5.600000e+01 7.200000e+01
      vertex   6.700000e+01 2.950000e+01 7.200000e+01
      vertex   6.700000e+01 2.475000e+01 7.200000e+01
    endloop
  endfacet
  facet normal 0.000000e+00 -0.000000e+00 1.000000e+00
    outer loop
      vertex   6.700000e+01 2.475000e+01 7.200000e+01
      vertex   6.700000e+01 2.950000e+01 7.200000e+01
      vertex   3.000000e+00 2.950000e+01 7.200000e+01
    endloop
  endfacet
  facet normal 0.000000e+00 0.000000e+00 1.000000e+00
    outer loop
      vertex   6.700000e+01 2.475000e+01 7.200000e+01
      vertex   3.000000e+00 2.950000e+01 7.200000e+01
      vertex   3.000000e+00 2.475000e+01 7.200000e+01
    endloop
  endfacet
  facet normal 0.000000e+00 -0.000000e+00 1.000000e+00
    outer loop
      vertex   3.000000e+00 2.475000e+01 7.200000e+01
      vertex   3.000000e+00 2.950000e+01 7.200000e+01
      vertex   -2.000000e+00 5.600000e+01 7.200000e+01
    endloop
  endfacet
  facet normal 0.000000e+00 0.000000e+00 1.000000e+00
    outer loop
      vertex   3.000000e+00 2.475000e+01 7.200000e+01
      vertex   -2.000000e+00 5.600000e+01 7.200000e+01
      vertex   -2.000000e+00 -2.000000e+00 7.200000e+01
    endloop
  endfacet
  facet normal 0.000000e+00 -0.000000e+00 1.000000e+00
    outer loop
      vertex   3.000000e+00 2.950000e+01 7.200000e+01
      vertex   3.000000e+00 3.350000e+01 7.200000e+01
      vertex   -2.000000e+00 5.600000e+01 7.200000e+01
    endloop
  endfacet
  facet normal 0.000000e+00 0.000000e+00 1.000000e+00
    outer loop
      vertex   -2.000000e+00 5.600000e+01 7.200000e+01
      vertex   3.000000e+00 3.350000e+01 7.200000e+01
      vertex   3.000000e+00 3.825000e+01 7.200000e+01
    endloop
  endfacet
  facet normal 0.000000e+00 0.000000e+00 1.000000e+00
    outer loop
      vertex   -2.000000e+00 5.600000e+01 7.200000e+01
      vertex   3.000000e+00 3.825000e+01 7.200000e+01
      vertex   3.000000e+00 4.225000e+01 7.200000e+01
    endloop
  endfacet
  facet normal 0.000000e+00 -0.000000e+00 1.000000e+00
    outer loop
      vertex   3.000000e+00 3.350000e+01 7.200000e+01
      vertex   6.700000e+01 3.350000e+01 7.200000e+01
      vertex   3.000000e+00 3.825000e+01 7.200000e+01
    endloop
  endfacet
  facet normal -0.000000e+00 0.000000e+00 1.000000e+00
    outer loop
      vertex   6.700000e+01 3.000000e+00 7.200000e+01
      vertex   7.200000e+01 -2.000000e+00 7.200000e+01
      vertex   6.700000e+01 7.000000e+00 7.200000e+01
    endloop
  endfacet
  facet normal -0.000000e+00 0.000000e+00 1.000000e+00
    outer loop
      vertex   6.700000e+01 7.000000e+00 7.200000e+01
      vertex   7.200000e+01 -2.000000e+00 7.200000e+01
      vertex   6.700000e+01 1.200000e+01 7.200000e+01
    endloop
  endfacet
  facet normal 0.000000e+00 -0.000000e+00 1.000000e+00
    outer loop
      vertex   6.700000e+01 7.000000e+00 7.200000e+01
      vertex   6.700000e+01 1.200000e+01 7.200000e+01
      vertex   3.000000e+00 1.200000e+01 7.200000e+01
    endloop
  endfacet
  facet normal 0.000000e+00 0.000000e+00 1.000000e+00
    outer loop
      vertex   6.700000e+01 3.000000e+00 7.200000e+01
      vertex   3.000000e+00 3.000000e+00 7.200000e+01
      vertex   7.200000e+01 -2.000000e+00 7.200000e+01
    endloop
  endfacet
  facet normal 0.000000e+00 0.000000e+00 1.000000e+00
    outer loop
      vertex   7.200000e+01 -2.000000e+00 7.200000e+01
      vertex   3.000000e+00 3.000000e+00 7.200000e+01
      vertex   -2.000000e+00 -2.000000e+00 7.200000e+01
    endloop
  endfacet
  facet normal 0.000000e+00 0.000000e+00 1.000000e+00
    outer loop
      vertex   -2.000000e+00 -2.000000e+00 7.200000e+01
      vertex   3.000000e+00 3.000000e+00 7.200000e+01
      vertex   3.000000e+00 7.000000e+00 7.200000e+01
    endloop
  endfacet
  facet normal 0.000000e+00 0.000000e+00 1.000000e+00
    outer loop
      vertex   -2.000000e+00 -2.000000e+00 7.200000e+01
      vertex   3.000000e+00 7.000000e+00 7.200000e+01
      vertex   3.000000e+00 1.200000e+01 7.200000e+01
    endloop
  endfacet
  facet normal 0.000000e+00 0.000000e+00 1.000000e+00
    outer loop
      vertex   3.000000e+00 1.200000e+01 7.200000e+01
      vertex   3.000000e+00 7.000000e+00 7.200000e+01
      vertex   6.700000e+01 7.000000e+00 7.200000e+01
    endloop
  endfacet
  facet normal 0.000000e+00 0.000000e+00 1.000000e+00
    outer loop
      vertex   6.700000e+01 3.825000e+01 7.200000e+01
      vertex   7.200000e+01 5.600000e+01 7.200000e+01
      vertex   6.700000e+01 4.225000e+01 7.200000e+01
    endloop
  endfacet
  facet normal 0.000000e+00 0.000000e+00 1.000000e+00
    outer loop
      vertex   6.700000e+01 4.225000e+01 7.200000e+01
      vertex   7.200000e+01 5.600000e+01 7.200000e+01
      vertex   6.700000e+01 4.700000e+01 7.200000e+01
    endloop
  endfacet
  facet normal 0.000000e+00 -0.000000e+00 1.000000e+00
    outer loop
      vertex   6.700000e+01 4.225000e+01 7.200000e+01
      vertex   6.700000e+01 4.700000e+01 7.200000e+01
      vertex   3.000000e+00 4.700000e+01 7.200000e+01
    endloop
  endfacet
  facet normal 0.000000e+00 0.000000e+00 1.000000e+00
    outer loop
      vertex   -2.000000e+00 5.600000e+01 7.200000e+01
      vertex   3.000000e+00 4.225000e+01 7.200000e+01
      vertex   3.000000e+00 4.700000e+01 7.200000e+01
    endloop
  endfacet
  facet normal 0.000000e+00 0.000000e+00 1.000000e+00
    outer loop
      vertex   3.000000e+00 4.700000e+01 7.200000e+01
      vertex   3.000000e+00 4.225000e+01 7.200000e+01
      vertex   6.700000e+01 4.225000e+01 7.200000e+01
    endloop
  endfacet
  facet normal 0.000000e+00 0.000000e+00 1.000000e+00
    outer loop
      vertex   7.200000e+01 5.600000e+01 7.200000e+01
      vertex   6.700000e+01 2.475000e+01 7.200000e+01
      vertex   7.200000e+01 -2.000000e+00 7.200000e+01
    endloop
  endfacet
  facet normal 0.000000e+00 0.000000e+00 1.000000e+00
    outer loop
      vertex   7.200000e+01 -2.000000e+00 7.200000e+01
      vertex   6.700000e+01 2.475000e+01 7.200000e+01
      vertex   6.700000e+01 2.075000e+01 7.200000e+01
    endloop
  endfacet
  facet normal 0.000000e+00 0.000000e+00 1.000000e+00
    outer loop
      vertex   7.200000e+01 -2.000000e+00 7.200000e+01
      vertex   6.700000e+01 2.075000e+01 7.200000e+01
      vertex   6.700000e+01 1.600000e+01 7.200000e+01
    endloop
  endfacet
  facet normal 0.000000e+00 -0.000000e+00 1.000000e+00
    outer loop
      vertex   6.700000e+01 1.600000e+01 7.200000e+01
      vertex   6.700000e+01 2.075000e+01 7.200000e+01
      vertex   3.000000e+00 2.075000e+01 7.200000e+01
    endloop
  endfacet
  facet normal 0.000000e+00 0.000000e+00 1.000000e+00
    outer loop
      vertex   6.700000e+01 1.600000e+01 7.200000e+01
      vertex   3.000000e+00 2.075000e+01 7.200000e+01
      vertex   3.000000e+00 1.600000e+01 7.200000e+01
    endloop
  endfacet
  facet normal 0.000000e+00 -0.000000e+00 1.000000e+00
    outer loop
      vertex   3.000000e+00 1.600000e+01 7.200000e+01
      vertex   3.000000e+00 2.075000e+01 7.200000e+01
      vertex   -2.000000e+00 -2.000000e+00 7.200000e+01
    endloop
  endfacet
  facet normal 0.000000e+00 0.000000e+00 1.000000e+00
    outer loop
      vertex   3.000000e+00 1.600000e+01 7.200000e+01
      vertex   -2.000000e+00 -2.000000e+00 7.200000e+01
      vertex   3.000000e+00 1.200000e+01 7.200000e+01
    endloop
  endfacet
  facet normal 0.000000e+00 -0.000000e+00 1.000000e+00
    outer loop
      vertex   3.000000e+00 2.075000e+01 7.200000e+01
      vertex   3.000000e+00 2.475000e+01 7.200000e+01
      vertex   -2.000000e+00 -2.000000e+00 7.200000e+01
    endloop
  endfacet
  facet normal 0.000000e+00 0.000000e+00 1.000000e+00
    outer loop
      vertex   6.700000e+01 1.600000e+01 7.200000e+01
      vertex   6.700000e+01 1.200000e+01 7.200000e+01
      vertex   7.200000e+01 -2.000000e+00 7.200000e+01
    endloop
  endfacet
  facet normal 0.000000e+00 0.000000e+00 1.000000e+00
    outer loop
      vertex   6.700000e+01 4.700000e+01 7.200000e+01
      vertex   7.200000e+01 5.600000e+01 7.200000e+01
      vertex   6.700000e+01 5.100000e+01 7.200000e+01
    endloop
  endfacet
  facet normal 0.000000e+00 -0.000000e+00 1.000000e+00
    outer loop
      vertex   6.700000e+01 5.100000e+01 7.200000e+01
      vertex   7.200000e+01 5.600000e+01 7.200000e+01
      vertex   -2.000000e+00 5.600000e+01 7.200000e+01
    endloop
  endfacet
  facet normal 0.000000e+00 0.000000e+00 1.000000e+00
    outer loop
      vertex   6.700000e+01 5.100000e+01 7.200000e+01
      vertex   -2.000000e+00 5.600000e+01 7.200000e+01
      vertex   3.000000e+00 5.100000e+01 7.200000e+01
    endloop
  endfacet
  facet normal 0.000000e+00 0.000000e+00 1.000000e+00
    outer loop
      vertex   3.000000e+00 5.100000e+01 7.200000e+01
      vertex   -2.000000e+00 5.600000e+01 7.200000e+01
      vertex   3.000000e+00 4.700000e+01 7.200000e+01
    endloop
  endfacet
  facet normal 0.000000e+00 -1.000000e+00 0.000000e+00
    outer loop
      vertex   6.800000e+01 1.000000e+01 4.500000e+01
      vertex   7.000000e+01 1.000000e+01 3.000000e+01
      vertex   6.990000e+01 1.000000e+01 4.500000e+01
    endloop
  endfacet
  facet normal 0.000000e+00 -1.000000e+00 0.000000e+00
    outer loop
      vertex   6.990000e+01 1.000000e+01 4.500000e+01
      vertex   7.000000e+01 1.000000e+01 3.000000e+01
      vertex   7.200000e+01 1.000000e+01 3.000000e+01
    endloop
  endfacet
  facet normal 0.000000e+00 -1.000000e+00 0.000000e+00
    outer loop
      vertex   6.990000e+01 1.000000e+01 4.500000e+01
      vertex   7.200000e+01 1.000000e+01 3.000000e+01
      vertex   7.200000e+01 1.000000e+01 5.000000e+01
    endloop
  endfacet
  facet normal 0.000000e+00 -1.000000e+00 0.000000e+00
    outer loop
      vertex   6.800000e+01 1.000000e+01 4.500000e+01
      vertex   6.800000e+01 1.000000e+01 2.500000e+01
      vertex   7.000000e+01 1.000000e+01 3.000000e+01
    endloop
  endfacet
  facet normal 0.000000e+00 -1.000000e+00 -0.000000e+00
    outer loop
      vertex   7.000000e+01 1.000000e+01 3.000000e+01
      vertex   6.800000e+01 1.000000e+01 2.500000e+01
      vertex   7.000000e+01 1.000000e+01 2.500000e+01
    endloop
  endfacet
  facet normal -0.000000e+00 -1.000000e+00 0.000000e+00
    outer loop
      vertex   7.200000e+01 1.000000e+01 5.000000e+01
      vertex   6.990000e+01 1.000000e+01 5.000000e+01
      vertex   6.990000e+01 1.000000e+01 4.500000e+01
    endloop
  endfacet
  facet normal 0.000000e+00 0.000000e+00 -1.000000e+00
    outer loop
      vertex   1.000000e-01 1.000000e+01 3.000000e+01
      vertex   -2.000000e+00 1.000000e+01 3.000000e+01
      vertex   1.000000e-01 5.390000e+01 3.000000e+01
    endloop
  endfacet
  facet normal -0.000000e+00 0.000000e+00 -1.000000e+00
    outer loop
      vertex   1.000000e-01 5.390000e+01 3.000000e+01
      vertex   -2.000000e+00 1.000000e+01 3.000000e+01
      vertex   -2.000000e+00 5.600000e+01 3.000000e+01
    endloop
  endfacet
  facet normal 0.000000e+00 0.000000e+00 -1.000000e+00
    outer loop
      vertex   1.000000e-01 5.390000e+01 3.000000e+01
      vertex   -2.000000e+00 5.600000e+01 3.000000e+01
      vertex   7.200000e+01 5.600000e+01 3.000000e+01
    endloop
  endfacet
  facet normal 0.000000e+00 0.000000e+00 -1.000000e+00
    outer loop
      vertex   1.000000e-01 5.390000e+01 3.000000e+01
      vertex   7.200000e+01 5.600000e+01 3.000000e+01
      vertex   7.000000e+01 5.390000e+01 3.000000e+01
    endloop
  endfacet
  facet normal 0.000000e+00 0.000000e+00 -1.000000e+00
    outer loop
      vertex   7.000000e+01 5.390000e+01 3.000000e+01
      vertex   7.200000e+01 5.600000e+01 3.000000e+01
      vertex   7.200000e+01 1.000000e+01 3.000000e+01
    endloop
  endfacet
  facet normal 0.000000e+00 -0.000000e+00 -1.000000e+00
    outer loop
      vertex   7.000000e+01 5.390000e+01 3.000000e+01
      vertex   7.200000e+01 1.000000e+01 3.000000e+01
      vertex   7.000000e+01 1.000000e+01 3.000000e+01
    endloop
  endfacet
  facet normal -5.046468e-17 1.000000e+00 0.000000e+00
    outer loop
      vertex   2.000000e+00 2.000000e+00 7.000000e+01
      vertex   6.800000e+01 2.000000e+00 7.000000e+01
      vertex   2.000000e+00 2.000000e+00 4.500000e+01
    endloop
  endfacet
  facet normal -5.046468e-17 1.000000e+00 0.000000e+00
    outer loop
      vertex   2.000000e+00 2.000000e+00 4.500000e+01
      vertex   6.800000e+01 2.000000e+00 7.000000e+01
      vertex   6.800000e+01 2.000000e+00 4.500000e+01
    endloop
  endfacet
  facet normal -1.000000e+00 1.266599e-07 0.000000e+00
    outer loop
      vertex   6.800000e+01 2.000000e+00 4.500000e+01
      vertex   6.800000e+01 2.000000e+00 7.000000e+01
      vertex   6.800000e+01 1.000000e+01 4.500000e+01
    endloop
  endfacet
  facet normal -1.000000e+00 0.000000e+00 -4.053116e-08
    outer loop
      vertex   6.800000e+01 1.000000e+01 4.500000e+01
      vertex   6.800000e+01 2.000000e+00 7.000000e+01
      vertex   6.800000e+01 5.200000e+01 7.000000e+01
    endloop
  endfacet
  facet normal -1.000000e+00 -2.412569e-08 0.000000e+00
    outer loop
      vertex   6.800000e+01 1.000000e+01 4.500000e+01
      vertex   6.800000e+01 5.200000e+01 7.000000e+01
      vertex   6.800000e+01 5.200000e+01 2.500000e+01
    endloop
  endfacet
  facet normal -1.000000e+00 -2.412569e-08 0.000000e+00
    outer loop
      vertex   6.800000e+01 5.200000e+01 2.500000e+01
      vertex   6.800000e+01 1.000000e+01 2.500000e+01
      vertex   6.800000e+01 1.000000e+01 4.500000e+01
    endloop
  endfacet
  facet normal -0.000000e+00 -1.000000e+00 -0.000000e+00
    outer loop
      vertex   3.000000e+00 5.200000e+01 5.900000e+01
      vertex   2.000000e+00 5.200000e+01 7.000000e+01
      vertex   3.000000e+00 5.200000e+01 5.500000e+01
    endloop
  endfacet
  facet normal -0.000000e+00 -1.000000e+00 0.000000e+00
    outer loop
      vertex   3.000000e+00 5.200000e+01 5.500000e+01
      vertex   2.000000e+00 5.200000e+01 7.000000e+01
      vertex   3.000000e+00 5.200000e+01 5.100000e+01
    endloop
  endfacet
  facet normal 0.000000e+00 -1.000000e+00 -0.000000e+00
    outer loop
      vertex   3.000000e+00 5.200000e+01 5.500000e+01
      vertex   3.000000e+00 5.200000e+01 5.100000e+01
      vertex   6.700000e+01 5.200000e+01 5.100000e+01
    endloop
  endfacet
  facet normal 0.000000e+00 -1.000000e+00 0.000000e+00
    outer loop
      vertex   2.000000e+00 5.200000e+01 7.000000e+01
      vertex   3.000000e+00 5.200000e+01 5.900000e+01
      vertex   3.000000e+00 5.200000e+01 6.300000e+01
    endloop
  endfacet
  facet normal 0.000000e+00 -1.000000e+00 -0.000000e+00
    outer loop
      vertex   3.000000e+00 5.200000e+01 6.300000e+01
      vertex   3.000000e+00 5.200000e+01 5.900000e+01
      vertex   6.700000e+01 5.200000e+01 5.900000e+01
    endloop
  endfacet
  facet normal 0.000000e+00 -1.000000e+00 0.000000e+00
    outer loop
      vertex   3.000000e+00 5.200000e+01 6.300000e+01
      vertex   6.700000e+01 5.200000e+01 5.900000e+01
      vertex   6.700000e+01 5.200000e+01 6.300000e+01
    endloop
  endfacet
  facet normal 0.000000e+00 -1.000000e+00 0.000000e+00
    outer loop
      vertex   6.700000e+01 5.200000e+01 6.300000e+01
      vertex   6.700000e+01 5.200000e+01 5.900000e+01
      vertex   6.800000e+01 5.200000e+01 7.000000e+01
    endloop
  endfacet
  facet normal 0.000000e+00 -1.000000e+00 0.000000e+00
    outer loop
      vertex   6.700000e+01 5.200000e+01 6.300000e+01
      vertex   6.800000e+01 5.200000e+01 7.000000e+01
      vertex   6.700000e+01 5.200000e+01 6.700000e+01
    endloop
  endfacet
  facet normal 0.000000e+00 -1.000000e+00 0.000000e+00
    outer loop
      vertex   6.700000e+01 5.200000e+01 6.700000e+01
      vertex   6.800000e+01 5.200000e+01 7.000000e+01
      vertex   2.000000e+00 5.200000e+01 7.000000e+01
    endloop
  endfacet
  facet normal 0.000000e+00 -1.000000e+00 0.000000e+00
    outer loop
      vertex   6.700000e+01 5.200000e+01 6.700000e+01
      vertex   2.000000e+00 5.200000e+01 7.000000e+01
      vertex   3.000000e+00 5.200000e+01 6.700000e+01
    endloop
  endfacet
  facet normal -0.000000e+00 -1.000000e+00 -0.000000e+00
    outer loop
      vertex   3.000000e+00 5.200000e+01 6.700000e+01
      vertex   2.000000e+00 5.200000e+01 7.000000e+01
      vertex   3.000000e+00 5.200000e+01 6.300000e+01
    endloop
  endfacet
  facet normal 0.000000e+00 -1.000000e+00 0.000000e+00
    outer loop
      vertex   6.700000e+01 5.200000e+01 5.900000e+01
      vertex   6.700000e+01 5.200000e+01 5.500000e+01
      vertex   6.800000e+01 5.200000e+01 7.000000e+01
    endloop
  endfacet
  facet normal 0.000000e+00 -1.000000e+00 0.000000e+00
    outer loop
      vertex   6.800000e+01 5.200000e+01 7.000000e+01
      vertex   6.700000e+01 5.200000e+01 5.500000e+01
      vertex   6.700000e+01 5.200000e+01 5.100000e+01
    endloop
  endfacet
  facet normal 0.000000e+00 -1.000000e+00 0.000000e+00
    outer loop
      vertex   6.800000e+01 5.200000e+01 7.000000e+01
      vertex   6.700000e+01 5.200000e+01 5.100000e+01
      vertex   6.700000e+01 5.200000e+01 4.700000e+01
    endloop
  endfacet
  facet normal -0.000000e+00 -1.000000e+00 -0.000000e+00
    outer loop
      vertex   6.700000e+01 5.200000e+01 5.500000e+01
      vertex   3.000000e+00 5.200000e+01 5.500000e+01
      vertex   6.700000e+01 5.200000e+01 5.100000e+01
    endloop
  endfacet
  facet normal -0.000000e+00 -1.000000e+00 -0.000000e+00
    outer loop
      vertex   3.000000e+00 5.200000e+01 5.100000e+01
      vertex   2.000000e+00 5.200000e+01 7.000000e+01
      vertex   3.000000e+00 5.200000e+01 4.700000e+01
    endloop
  endfacet
  facet normal -0.000000e+00 -1.000000e+00 0.000000e+00
    outer loop
      vertex   3.000000e+00 5.200000e+01 4.700000e+01
      vertex   2.000000e+00 5.200000e+01 7.000000e+01
      vertex   2.000000e+00 5.200000e+01 2.500000e+01
    endloop
  endfacet
  facet normal 0.000000e+00 -1.000000e+00 -0.000000e+00
    outer loop
      vertex   3.000000e+00 5.200000e+01 4.700000e+01
      vertex   2.000000e+00 5.200000e+01 2.500000e+01
      vertex   6.800000e+01 5.200000e+01 2.500000e+01
    endloop
  endfacet
  facet normal 0.000000e+00 -1.000000e+00 -0.000000e+00
    outer loop
      vertex   6.800000e+01 5.200000e+01 7.000000e+01
      vertex   6.700000e+01 5.200000e+01 4.700000e+01
      vertex   6.800000e+01 5.200000e+01 2.500000e+01
    endloop
  endfacet
  facet normal 0.000000e+00 -1.000000e+00 0.000000e+00
    outer loop
      vertex   6.800000e+01 5.200000e+01 2.500000e+01
      vertex   6.700000e+01 5.200000e+01 4.700000e+01
      vertex   3.000000e+00 5.200000e+01 4.700000e+01
    endloop
  endfacet
  facet normal 1.000000e+00 7.095789e-10 -0.000000e+00
    outer loop
      vertex   2.000000e+00 1.000000e+01 2.500000e+01
      vertex   2.000000e+00 5.200000e+01 2.500000e+01
      vertex   2.000000e+00 1.000000e+01 4.500000e+01
    endloop
  endfacet
  facet normal 1.000000e+00 7.095789e-10 0.000000e+00
    outer loop
      vertex   2.000000e+00 1.000000e+01 4.500000e+01
      vertex   2.000000e+00 5.200000e+01 2.500000e+01
      vertex   2.000000e+00 5.200000e+01 7.000000e+01
    endloop
  endfacet
  facet normal 1.000000e+00 7.105427e-17 1.192092e-09
    outer loop
      vertex   2.000000e+00 1.000000e+01 4.500000e+01
      vertex   2.000000e+00 5.200000e+01 7.000000e+01
      vertex   2.000000e+00 2.000000e+00 7.000000e+01
    endloop
  endfacet
  facet normal 1.000000e+00 -3.725289e-09 0.000000e+00
    outer loop
      vertex   2.000000e+00 2.000000e+00 7.000000e+01
      vertex   2.000000e+00 2.000000e+00 4.500000e+01
      vertex   2.000000e+00 1.000000e+01 4.500000e+01
    endloop
  endfacet
  facet normal 1.000000e+00 0.000000e+00 0.000000e+00
    outer loop
      vertex   7.200000e+01 1.000000e+01 3.000000e+01
      vertex   7.200000e+01 5.600000e+01 3.000000e+01
      vertex   7.200000e+01 1.000000e+01 5.000000e+01
    endloop
  endfacet
  facet normal 1.000000e+00 -0.000000e+00 0.000000e+00
    outer loop
      vertex   7.200000e+01 1.000000e+01 5.000000e+01
      vertex   7.200000e+01 5.600000e+01 3.000000e+01
      vertex   7.200000e+01 5.600000e+01 7.200000e+01
    endloop
  endfacet
  facet normal 1.000000e+00 0.000000e+00 -0.000000e+00
    outer loop
      vertex   7.200000e+01 1.000000e+01 5.000000e+01
      vertex   7.200000e+01 5.600000e+01 7.200000e+01
      vertex   7.200000e+01 -2.000000e+00 7.200000e+01
    endloop
  endfacet
  facet normal 1.000000e+00 0.000000e+00 0.000000e+00
    outer loop
      vertex   7.200000e+01 -2.000000e+00 7.200000e+01
      vertex   7.200000e+01 -2.000000e+00 5.000000e+01
      vertex   7.200000e+01 1.000000e+01 5.000000e+01
    endloop
  endfacet
  facet normal 0.000000e+00 -1.000000e+00 0.000000e+00
    outer loop
      vertex   -2.000000e+00 -2.000000e+00 5.000000e+01
      vertex   7.200000e+01 -2.000000e+00 5.000000e+01
      vertex   -2.000000e+00 -2.000000e+00 7.200000e+01
    endloop
  endfacet
  facet normal 0.000000e+00 -1.000000e+00 0.000000e+00
    outer loop
      vertex   -2.000000e+00 -2.000000e+00 7.200000e+01
      vertex   7.200000e+01 -2.000000e+00 5.000000e+01
      vertex   7.200000e+01 -2.000000e+00 7.200000e+01
    endloop
  endfacet
  facet normal -1.000000e+00 0.000000e+00 0.000000e+00
    outer loop
      vertex   -2.000000e+00 -2.000000e+00 5.000000e+01
      vertex   -2.000000e+00 -2.000000e+00 7.200000e+01
      vertex   -2.000000e+00 1.000000e+01 5.000000e+01
    endloop
  endfacet
  facet normal -1.000000e+00 0.000000e+00 0.000000e+00
    outer loop
      vertex   -2.000000e+00 1.000000e+01 5.000000e+01
      vertex   -2.000000e+00 -2.000000e+00 7.200000e+01
      vertex   -2.000000e+00 5.600000e+01 7.200000e+01
    endloop
  endfacet
  facet normal -1.000000e+00 0.000000e+00 0.000000e+00
    outer loop
      vertex   -2.000000e+00 1.000000e+01 5.000000e+01
      vertex   -2.000000e+00 5.600000e+01 7.200000e+01
      vertex   -2.000000e+00 5.600000e+01 3.000000e+01
    endloop
  endfacet
  facet normal -1.000000e+00 0.000000e+00 0.000000e+00
    outer loop
      vertex   -2.000000e+00 5.600000e+01 3.000000e+01
      vertex   -2.000000e+00 1.000000e+01 3.000000e+01
      vertex   -2.000000e+00 1.000000e+01 5.000000e+01
    endloop
  endfacet
  facet normal 0.000000e+00 1.000000e+00 0.000000e+00
    outer loop
      vertex   3.000000e+00 5.600000e+01 6.300000e+01
      vertex   -2.000000e+00 5.600000e+01 7.200000e+01
      vertex   3.000000e+00 5.600000e+01 6.700000e+01
    endloop
  endfacet
  facet normal 0.000000e+00 1.000000e+00 -0.000000e+00
    outer loop
      vertex   3.000000e+00 5.600000e+01 6.700000e+01
      vertex   -2.000000e+00 5.600000e+01 7.200000e+01
      vertex   7.200000e+01 5.600000e+01 7.200000e+01
    endloop
  endfacet
  facet normal 0.000000e+00 1.000000e+00 0.000000e+00
    outer loop
      vertex   3.000000e+00 5.600000e+01 6.700000e+01
      vertex   7.200000e+01 5.600000e+01 7.200000e+01
      vertex   6.700000e+01 5.600000e+01 6.700000e+01
    endloop
  endfacet
  facet normal -0.000000e+00 1.000000e+00 0.000000e+00
    outer loop
      vertex   6.700000e+01 5.600000e+01 6.700000e+01
      vertex   7.200000e+01 5.600000e+01 7.200000e+01
      vertex   6.700000e+01 5.600000e+01 6.300000e+01
    endloop
  endfacet
  facet normal -0.000000e+00 1.000000e+00 0.000000e+00
    outer loop
      vertex   6.700000e+01 5.600000e+01 6.300000e+01
      vertex   7.200000e+01 5.600000e+01 7.200000e+01
      vertex   6.700000e+01 5.600000e+01 5.900000e+01
    endloop
  endfacet
  facet normal 0.000000e+00 1.000000e+00 0.000000e+00
    outer loop
      vertex   6.700000e+01 5.600000e+01 6.300000e+01
      vertex   6.700000e+01 5.600000e+01 5.900000e+01
      vertex   3.000000e+00 5.600000e+01 5.900000e+01
    endloop
  endfacet
  facet normal 0.000000e+00 1.000000e+00 0.000000e+00
    outer loop
      vertex   -2.000000e+00 5.600000e+01 7.200000e+01
      vertex   3.000000e+00 5.600000e+01 6.300000e+01
      vertex   3.000000e+00 5.600000e+01 5.900000e+01
    endloop
  endfacet
  facet normal 0.000000e+00 1.000000e+00 0.000000e+00
    outer loop
      vertex   3.000000e+00 5.600000e+01 5.900000e+01
      vertex   3.000000e+00 5.600000e+01 6.300000e+01
      vertex   6.700000e+01 5.600000e+01 6.300000e+01
    endloop
  endfacet
  facet normal 0.000000e+00 1.000000e+00 0.000000e+00
    outer loop
      vertex   3.000000e+00 5.600000e+01 5.900000e+01
      vertex   3.000000e+00 5.600000e+01 5.500000e+01
      vertex   -2.000000e+00 5.600000e+01 7.200000e+01
    endloop
  endfacet
  facet normal 0.000000e+00 1.000000e+00 0.000000e+00
    outer loop
      vertex   -2.000000e+00 5.600000e+01 7.200000e+01
      vertex   3.000000e+00 5.600000e+01 5.500000e+01
      vertex   3.000000e+00 5.600000e+01 5.100000e+01
    endloop
  endfacet
  facet normal 0.000000e+00 1.000000e+00 0.000000e+00
    outer loop
      vertex   -2.000000e+00 5.600000e+01 7.200000e+01
      vertex   3.000000e+00 5.600000e+01 5.100000e+01
      vertex   -2.000000e+00 5.600000e+01 3.000000e+01
    endloop
  endfacet
  facet normal 0.000000e+00 1.000000e+00 0.000000e+00
    outer loop
      vertex   -2.000000e+00 5.600000e+01 3.000000e+01
      vertex   3.000000e+00 5.600000e+01 5.100000e+01
      vertex   3.000000e+00 5.600000e+01 4.700000e+01
    endloop
  endfacet
  facet normal 0.000000e+00 1.000000e+00 0.000000e+00
    outer loop
      vertex   -2.000000e+00 5.600000e+01 3.000000e+01
      vertex   3.000000e+00 5.600000e+01 4.700000e+01
      vertex   6.700000e+01 5.600000e+01 4.700000e+01
    endloop
  endfacet
  facet normal -0.000000e+00 1.000000e+00 0.000000e+00
    outer loop
      vertex   3.000000e+00 5.600000e+01 5.500000e+01
      vertex   6.700000e+01 5.600000e+01 5.500000e+01
      vertex   3.000000e+00 5.600000e+01 5.100000e+01
    endloop
  endfacet
  facet normal 0.000000e+00 1.000000e+00 0.000000e+00
    outer loop
      vertex   3.000000e+00 5.600000e+01 5.100000e+01
      vertex   6.700000e+01 5.600000e+01 5.500000e+01
      vertex   6.700000e+01 5.600000e+01 5.100000e+01
    endloop
  endfacet
  facet normal 0.000000e+00 1.000000e+00 0.000000e+00
    outer loop
      vertex   6.700000e+01 5.600000e+01 5.100000e+01
      vertex   6.700000e+01 5.600000e+01 5.500000e+01
      vertex   7.200000e+01 5.600000e+01 7.200000e+01
    endloop
  endfacet
  facet normal -0.000000e+00 1.000000e+00 0.000000e+00
    outer loop
      vertex   6.700000e+01 5.600000e+01 5.100000e+01
      vertex   7.200000e+01 5.600000e+01 7.200000e+01
      vertex   7.200000e+01 5.600000e+01 3.000000e+01
    endloop
  endfacet
  facet normal 0.000000e+00 1.000000e+00 0.000000e+00
    outer loop
      vertex   6.700000e+01 5.600000e+01 5.500000e+01
      vertex   6.700000e+01 5.600000e+01 5.900000e+01
      vertex   7.200000e+01 5.600000e+01 7.200000e+01
    endloop
  endfacet
  facet normal 0.000000e+00 1.000000e+00 0.000000e+00
    outer loop
      vertex   -2.000000e+00 5.600000e+01 3.000000e+01
      vertex   6.700000e+01 5.600000e+01 4.700000e+01
      vertex   7.200000e+01 5.600000e+01 3.000000e+01
    endloop
  endfacet
  facet normal 0.000000e+00 1.000000e+00 0.000000e+00
    outer loop
      vertex   7.200000e+01 5.600000e+01 3.000000e+01
      vertex   6.700000e+01 5.600000e+01 4.700000e+01
      vertex   6.700000e+01 5.600000e+01 5.100000e+01
    endloop
  endfacet
endsolid
